G04 #@! TF.GenerationSoftware,KiCad,Pcbnew,10.0.1*
G04 #@! TF.CreationDate,2026-04-28T14:02:31+01:00*
G04 #@! TF.ProjectId,curve_tracer,63757276-655f-4747-9261-6365722e6b69,rev?*
G04 #@! TF.SameCoordinates,Original*
G04 #@! TF.FileFunction,Copper,L1,Top*
G04 #@! TF.FilePolarity,Positive*
%FSLAX46Y46*%
G04 Gerber Fmt 4.6, Leading zero omitted, Abs format (unit mm)*
G04 Created by KiCad (PCBNEW 10.0.1) date 2026-04-28 14:02:31*
%MOMM*%
%LPD*%
G01*
G04 APERTURE LIST*
G04 Aperture macros list*
%AMRoundRect*
0 Rectangle with rounded corners*
0 $1 Rounding radius*
0 $2 $3 $4 $5 $6 $7 $8 $9 X,Y pos of 4 corners*
0 Add a 4 corners polygon primitive as box body*
4,1,4,$2,$3,$4,$5,$6,$7,$8,$9,$2,$3,0*
0 Add four circle primitives for the rounded corners*
1,1,$1+$1,$2,$3*
1,1,$1+$1,$4,$5*
1,1,$1+$1,$6,$7*
1,1,$1+$1,$8,$9*
0 Add four rect primitives between the rounded corners*
20,1,$1+$1,$2,$3,$4,$5,0*
20,1,$1+$1,$4,$5,$6,$7,0*
20,1,$1+$1,$6,$7,$8,$9,0*
20,1,$1+$1,$8,$9,$2,$3,0*%
%AMFreePoly0*
4,1,21,1.128536,4.453536,1.130000,4.450000,1.130000,1.525000,1.128536,1.521464,1.126161,1.520137,0.355000,1.336053,0.355000,-0.650000,0.353536,-0.653536,0.350000,-0.655000,-0.350000,-0.655000,-0.353536,-0.653536,-0.355000,-0.650000,-0.355000,1.336053,-1.126161,1.520137,-1.129260,1.522382,-1.130000,1.525000,-1.130000,4.450000,-1.128536,4.453536,-1.125000,4.455000,1.125000,4.455000,
1.128536,4.453536,1.128536,4.453536,$1*%
G04 Aperture macros list end*
G04 #@! TA.AperFunction,SMDPad,CuDef*
%ADD10RoundRect,0.225000X-0.375000X0.225000X-0.375000X-0.225000X0.375000X-0.225000X0.375000X0.225000X0*%
G04 #@! TD*
G04 #@! TA.AperFunction,SMDPad,CuDef*
%ADD11RoundRect,0.225000X0.225000X0.250000X-0.225000X0.250000X-0.225000X-0.250000X0.225000X-0.250000X0*%
G04 #@! TD*
G04 #@! TA.AperFunction,SMDPad,CuDef*
%ADD12RoundRect,0.200000X0.200000X0.275000X-0.200000X0.275000X-0.200000X-0.275000X0.200000X-0.275000X0*%
G04 #@! TD*
G04 #@! TA.AperFunction,SMDPad,CuDef*
%ADD13RoundRect,0.062500X0.062500X-0.117500X0.062500X0.117500X-0.062500X0.117500X-0.062500X-0.117500X0*%
G04 #@! TD*
G04 #@! TA.AperFunction,SMDPad,CuDef*
%ADD14RoundRect,0.225000X-0.225000X-0.250000X0.225000X-0.250000X0.225000X0.250000X-0.225000X0.250000X0*%
G04 #@! TD*
G04 #@! TA.AperFunction,SMDPad,CuDef*
%ADD15R,1.475000X0.450000*%
G04 #@! TD*
G04 #@! TA.AperFunction,SMDPad,CuDef*
%ADD16RoundRect,0.112500X0.112500X-0.187500X0.112500X0.187500X-0.112500X0.187500X-0.112500X-0.187500X0*%
G04 #@! TD*
G04 #@! TA.AperFunction,SMDPad,CuDef*
%ADD17RoundRect,0.200000X-0.200000X-0.275000X0.200000X-0.275000X0.200000X0.275000X-0.200000X0.275000X0*%
G04 #@! TD*
G04 #@! TA.AperFunction,ComponentPad*
%ADD18C,2.000000*%
G04 #@! TD*
G04 #@! TA.AperFunction,SMDPad,CuDef*
%ADD19R,2.184400X0.558800*%
G04 #@! TD*
G04 #@! TA.AperFunction,SMDPad,CuDef*
%ADD20R,1.460500X0.558800*%
G04 #@! TD*
G04 #@! TA.AperFunction,SMDPad,CuDef*
%ADD21RoundRect,0.225000X-0.250000X0.225000X-0.250000X-0.225000X0.250000X-0.225000X0.250000X0.225000X0*%
G04 #@! TD*
G04 #@! TA.AperFunction,SMDPad,CuDef*
%ADD22RoundRect,0.200000X0.275000X-0.200000X0.275000X0.200000X-0.275000X0.200000X-0.275000X-0.200000X0*%
G04 #@! TD*
G04 #@! TA.AperFunction,SMDPad,CuDef*
%ADD23RoundRect,0.250000X-0.550000X1.050000X-0.550000X-1.050000X0.550000X-1.050000X0.550000X1.050000X0*%
G04 #@! TD*
G04 #@! TA.AperFunction,SMDPad,CuDef*
%ADD24RoundRect,0.250000X-1.050000X-0.550000X1.050000X-0.550000X1.050000X0.550000X-1.050000X0.550000X0*%
G04 #@! TD*
G04 #@! TA.AperFunction,ComponentPad*
%ADD25C,1.600000*%
G04 #@! TD*
G04 #@! TA.AperFunction,ComponentPad*
%ADD26R,1.700000X1.700000*%
G04 #@! TD*
G04 #@! TA.AperFunction,ComponentPad*
%ADD27C,1.700000*%
G04 #@! TD*
G04 #@! TA.AperFunction,SMDPad,CuDef*
%ADD28RoundRect,0.200000X-0.275000X0.200000X-0.275000X-0.200000X0.275000X-0.200000X0.275000X0.200000X0*%
G04 #@! TD*
G04 #@! TA.AperFunction,SMDPad,CuDef*
%ADD29R,1.300000X0.700000*%
G04 #@! TD*
G04 #@! TA.AperFunction,SMDPad,CuDef*
%ADD30FreePoly0,90.000000*%
G04 #@! TD*
G04 #@! TA.AperFunction,SMDPad,CuDef*
%ADD31RoundRect,0.250000X-0.475000X0.250000X-0.475000X-0.250000X0.475000X-0.250000X0.475000X0.250000X0*%
G04 #@! TD*
G04 #@! TA.AperFunction,WasherPad*
%ADD32C,2.300000*%
G04 #@! TD*
G04 #@! TA.AperFunction,ComponentPad*
%ADD33R,2.410000X4.020000*%
G04 #@! TD*
G04 #@! TA.AperFunction,ComponentPad*
%ADD34O,2.410000X4.020000*%
G04 #@! TD*
G04 #@! TA.AperFunction,ViaPad*
%ADD35C,0.600000*%
G04 #@! TD*
G04 #@! TA.AperFunction,Conductor*
%ADD36C,0.400000*%
G04 #@! TD*
G04 #@! TA.AperFunction,Conductor*
%ADD37C,0.200000*%
G04 #@! TD*
G04 #@! TA.AperFunction,Conductor*
%ADD38C,0.300000*%
G04 #@! TD*
G04 #@! TA.AperFunction,Profile*
%ADD39C,0.050000*%
G04 #@! TD*
G04 APERTURE END LIST*
D10*
G04 #@! TO.P,D8,1,K_1*
G04 #@! TO.N,Net-(D1-K)*
X121940000Y-83692500D03*
G04 #@! TO.P,D8,2,A_2*
G04 #@! TO.N,9V_POS*
X121940000Y-86992500D03*
G04 #@! TD*
D11*
G04 #@! TO.P,C_BYP1,1*
G04 #@! TO.N,9V_NEG*
X143425000Y-101760000D03*
G04 #@! TO.P,C_BYP1,2*
G04 #@! TO.N,GND*
X141875000Y-101760000D03*
G04 #@! TD*
D12*
G04 #@! TO.P,R9,1*
G04 #@! TO.N,GND*
X140005000Y-117630000D03*
G04 #@! TO.P,R9,2*
G04 #@! TO.N,Staircase*
X138355000Y-117630000D03*
G04 #@! TD*
D13*
G04 #@! TO.P,D1,1,K_1*
G04 #@! TO.N,Net-(D1-K)*
X126787500Y-83030000D03*
G04 #@! TO.P,D1,2,A_2*
G04 #@! TO.N,GND*
X126787500Y-83870000D03*
G04 #@! TD*
D14*
G04 #@! TO.P,C_BYP2,1*
G04 #@! TO.N,9V_POS*
X150950000Y-101670000D03*
G04 #@! TO.P,C_BYP2,2*
G04 #@! TO.N,GND*
X152500000Y-101670000D03*
G04 #@! TD*
D15*
G04 #@! TO.P,IC1,1,1OUT_1*
G04 #@! TO.N,Square*
X142092000Y-103985000D03*
G04 #@! TO.P,IC1,2,1IN-_2*
G04 #@! TO.N,GND*
X142092000Y-104635000D03*
G04 #@! TO.P,IC1,3,1IN+_3*
G04 #@! TO.N,Net-(IC1-1IN+)*
X142092000Y-105285000D03*
G04 #@! TO.P,IC1,4,VCC-_4*
G04 #@! TO.N,9V_NEG*
X142092000Y-105935000D03*
G04 #@! TO.P,IC1,5,2IN+_5*
G04 #@! TO.N,GND*
X147968000Y-105935000D03*
G04 #@! TO.P,IC1,6,2IN-_6*
G04 #@! TO.N,Net-(IC1-2IN-)*
X147968000Y-105285000D03*
G04 #@! TO.P,IC1,7,2OUT_7*
G04 #@! TO.N,Triangle*
X147968000Y-104635000D03*
G04 #@! TO.P,IC1,8,VCC+_8*
G04 #@! TO.N,9V_POS*
X147968000Y-103985000D03*
G04 #@! TD*
D16*
G04 #@! TO.P,D7,1,K_1*
G04 #@! TO.N,Net-(D7-K)*
X148440000Y-111247500D03*
G04 #@! TO.P,D7,2,A_2*
G04 #@! TO.N,Triangle*
X148440000Y-109147500D03*
G04 #@! TD*
D17*
G04 #@! TO.P,R8,1*
G04 #@! TO.N,Staircase*
X133875000Y-117660000D03*
G04 #@! TO.P,R8,2*
G04 #@! TO.N,Net-(D6-K)*
X135525000Y-117660000D03*
G04 #@! TD*
D18*
G04 #@! TO.P,TP2,1,1_1*
G04 #@! TO.N,5V*
X138720000Y-77750000D03*
G04 #@! TD*
D19*
G04 #@! TO.P,U3,1,5_1*
G04 #@! TO.N,Net-(U3-5)*
X126915600Y-104940000D03*
G04 #@! TO.P,U3,2,1_2*
G04 #@! TO.N,Net-(D3-A)*
X126915600Y-106210000D03*
G04 #@! TO.P,U3,3,0_3*
G04 #@! TO.N,Net-(D2-A)*
X126915600Y-107480000D03*
G04 #@! TO.P,U3,4,2_4*
G04 #@! TO.N,Net-(D4-A)*
X126915600Y-108750000D03*
G04 #@! TO.P,U3,5,6_5*
G04 #@! TO.N,unconnected-(U3-6-Pad5)*
X126915600Y-110020000D03*
G04 #@! TO.P,U3,6,7_6*
G04 #@! TO.N,unconnected-(U3-7-Pad6)*
X126915600Y-111290000D03*
G04 #@! TO.P,U3,7,3_7*
G04 #@! TO.N,Net-(D5-A)*
X126915600Y-112560000D03*
G04 #@! TO.P,U3,8,VSS_8*
G04 #@! TO.N,GND*
X126915600Y-113830000D03*
G04 #@! TO.P,U3,9,8_9*
G04 #@! TO.N,unconnected-(U3-8-Pad9)*
X131640000Y-113830000D03*
G04 #@! TO.P,U3,10,4_10*
G04 #@! TO.N,Net-(D6-A)*
X131640000Y-112560000D03*
G04 #@! TO.P,U3,11,9_11*
G04 #@! TO.N,unconnected-(U3-9-Pad11)*
X131640000Y-111290000D03*
G04 #@! TO.P,U3,12,CARRYOUT_12*
G04 #@! TO.N,unconnected-(U3-CARRYOUT-Pad12)*
X131640000Y-110020000D03*
G04 #@! TO.P,U3,13,CLOCKINHIBIT_13*
G04 #@! TO.N,GND*
X131640000Y-108750000D03*
G04 #@! TO.P,U3,14,CLOCK_14*
G04 #@! TO.N,Square*
X131640000Y-107480000D03*
G04 #@! TO.P,U3,15,RESET_15*
G04 #@! TO.N,Net-(U3-5)*
X131640000Y-106210000D03*
G04 #@! TO.P,U3,16,VDD_16*
G04 #@! TO.N,5V*
X131640000Y-104940000D03*
G04 #@! TD*
D12*
G04 #@! TO.P,R7,1*
G04 #@! TO.N,Staircase*
X128505000Y-117590000D03*
G04 #@! TO.P,R7,2*
G04 #@! TO.N,Net-(D5-K)*
X126855000Y-117590000D03*
G04 #@! TD*
D18*
G04 #@! TO.P,TP4,1,1_1*
G04 #@! TO.N,9V_NEG*
X149170000Y-93010000D03*
G04 #@! TD*
D20*
G04 #@! TO.P,U2,1,NC_1*
G04 #@! TO.N,unconnected-(U2-NC-Pad1)*
X145610000Y-84480000D03*
G04 #@! TO.P,U2,2,CAP+_2*
G04 #@! TO.N,Net-(U2-CAP+)*
X145610000Y-85750000D03*
G04 #@! TO.P,U2,3,GND_3*
G04 #@! TO.N,GND*
X145610000Y-87020000D03*
G04 #@! TO.P,U2,4,CAP-_4*
G04 #@! TO.N,Net-(U2-CAP-)*
X145610000Y-88290000D03*
G04 #@! TO.P,U2,5,VOUT_5*
G04 #@! TO.N,9V_NEG*
X151058300Y-88290000D03*
G04 #@! TO.P,U2,6,LV_6*
G04 #@! TO.N,unconnected-(U2-LV-Pad6)*
X151058300Y-87020000D03*
G04 #@! TO.P,U2,7,OSC_7*
G04 #@! TO.N,unconnected-(U2-OSC-Pad7)*
X151058300Y-85750000D03*
G04 #@! TO.P,U2,8,V+_8*
G04 #@! TO.N,9V_POS*
X151058300Y-84480000D03*
G04 #@! TD*
D16*
G04 #@! TO.P,D2,1,K_1*
G04 #@! TO.N,Net-(D2-K)*
X117710000Y-109587500D03*
G04 #@! TO.P,D2,2,A_2*
G04 #@! TO.N,Net-(D2-A)*
X117710000Y-107487500D03*
G04 #@! TD*
G04 #@! TO.P,D5,1,K_1*
G04 #@! TO.N,Net-(D5-K)*
X124220000Y-117457500D03*
G04 #@! TO.P,D5,2,A_2*
G04 #@! TO.N,Net-(D5-A)*
X124220000Y-115357500D03*
G04 #@! TD*
D18*
G04 #@! TO.P,TP6,1,1_1*
G04 #@! TO.N,Triangle*
X159510000Y-104960000D03*
G04 #@! TD*
G04 #@! TO.P,TP5,1,1_1*
G04 #@! TO.N,Square*
X159510000Y-109410000D03*
G04 #@! TD*
D21*
G04 #@! TO.P,C_BYP4,1*
G04 #@! TO.N,9V_POS*
X141210000Y-80810000D03*
G04 #@! TO.P,C_BYP4,2*
G04 #@! TO.N,GND*
X141210000Y-82360000D03*
G04 #@! TD*
D22*
G04 #@! TO.P,R5,1*
G04 #@! TO.N,Staircase*
X114130000Y-111670000D03*
G04 #@! TO.P,R5,2*
G04 #@! TO.N,Net-(D3-K)*
X114130000Y-110020000D03*
G04 #@! TD*
D23*
G04 #@! TO.P,C1,1*
G04 #@! TO.N,Net-(U2-CAP+)*
X140640000Y-87780000D03*
G04 #@! TO.P,C1,2*
G04 #@! TO.N,Net-(U2-CAP-)*
X140640000Y-91380000D03*
G04 #@! TD*
D21*
G04 #@! TO.P,C_BYP3,1*
G04 #@! TO.N,Net-(D1-K)*
X129760000Y-84825000D03*
G04 #@! TO.P,C_BYP3,2*
G04 #@! TO.N,GND*
X129760000Y-86375000D03*
G04 #@! TD*
D18*
G04 #@! TO.P,TP3,1,1_1*
G04 #@! TO.N,9V_POS*
X155820000Y-80560000D03*
G04 #@! TD*
D24*
G04 #@! TO.P,C2,1*
G04 #@! TO.N,GND*
X147240000Y-78790000D03*
G04 #@! TO.P,C2,2*
G04 #@! TO.N,9V_NEG*
X150840000Y-78790000D03*
G04 #@! TD*
D22*
G04 #@! TO.P,R4,1*
G04 #@! TO.N,Staircase*
X117730000Y-113745000D03*
G04 #@! TO.P,R4,2*
G04 #@! TO.N,Net-(D2-K)*
X117730000Y-112095000D03*
G04 #@! TD*
D25*
G04 #@! TO.P,R10,1*
G04 #@! TO.N,Net-(D7-K)*
X148910000Y-114520000D03*
G04 #@! TO.P,R10,2*
G04 #@! TO.N,Net-(J2-Pin_1)*
X156530000Y-114520000D03*
G04 #@! TD*
D18*
G04 #@! TO.P,TP8,1,1_1*
G04 #@! TO.N,GND*
X132790000Y-73840000D03*
G04 #@! TD*
G04 #@! TO.P,TP9,1,1_1*
G04 #@! TO.N,GND*
X164990000Y-105770000D03*
G04 #@! TD*
D22*
G04 #@! TO.P,R6,1*
G04 #@! TO.N,Staircase*
X121070000Y-114925000D03*
G04 #@! TO.P,R6,2*
G04 #@! TO.N,Net-(D4-K)*
X121070000Y-113275000D03*
G04 #@! TD*
D26*
G04 #@! TO.P,J2,1,Pin_1_1*
G04 #@! TO.N,Net-(J2-Pin_1)*
X165080000Y-114940000D03*
D27*
G04 #@! TO.P,J2,2,Pin_2_2*
G04 #@! TO.N,Staircase*
X165080000Y-112400000D03*
G04 #@! TO.P,J2,3,Pin_3_3*
G04 #@! TO.N,GND*
X165080000Y-109860000D03*
G04 #@! TD*
D12*
G04 #@! TO.P,R1,1*
G04 #@! TO.N,Triangle*
X145645000Y-107950000D03*
G04 #@! TO.P,R1,2*
G04 #@! TO.N,Net-(IC1-1IN+)*
X143995000Y-107950000D03*
G04 #@! TD*
D28*
G04 #@! TO.P,R3,1*
G04 #@! TO.N,Net-(IC1-2IN-)*
X150940000Y-105365000D03*
G04 #@! TO.P,R3,2*
G04 #@! TO.N,Square*
X150940000Y-107015000D03*
G04 #@! TD*
D18*
G04 #@! TO.P,TP1,1,1_1*
G04 #@! TO.N,Net-(D1-K)*
X126810000Y-79670000D03*
G04 #@! TD*
D16*
G04 #@! TO.P,D6,1,K_1*
G04 #@! TO.N,Net-(D6-K)*
X136480000Y-114847500D03*
G04 #@! TO.P,D6,2,A_2*
G04 #@! TO.N,Net-(D6-A)*
X136480000Y-112747500D03*
G04 #@! TD*
D29*
G04 #@! TO.P,U1,1,GND_1*
G04 #@! TO.N,GND*
X135897500Y-85170000D03*
D30*
G04 #@! TO.P,U1,2,VIN_2*
G04 #@! TO.N,Net-(D1-K)*
X135897500Y-83670000D03*
D29*
G04 #@! TO.P,U1,3,VOUT_3*
G04 #@! TO.N,5V*
X135897500Y-82170000D03*
G04 #@! TD*
D16*
G04 #@! TO.P,D3,1,K_1*
G04 #@! TO.N,Net-(D3-K)*
X114142500Y-107947500D03*
G04 #@! TO.P,D3,2,A_2*
G04 #@! TO.N,Net-(D3-A)*
X114142500Y-105847500D03*
G04 #@! TD*
D18*
G04 #@! TO.P,TP7,1,1_1*
G04 #@! TO.N,Staircase*
X114100000Y-115390000D03*
G04 #@! TD*
D31*
G04 #@! TO.P,C5,1*
G04 #@! TO.N,Triangle*
X154480000Y-104610000D03*
G04 #@! TO.P,C5,2*
G04 #@! TO.N,Square*
X154480000Y-106510000D03*
G04 #@! TD*
D22*
G04 #@! TO.P,R2,1*
G04 #@! TO.N,Net-(IC1-1IN+)*
X139820000Y-105375000D03*
G04 #@! TO.P,R2,2*
G04 #@! TO.N,Square*
X139820000Y-103725000D03*
G04 #@! TD*
D16*
G04 #@! TO.P,D4,1,K_1*
G04 #@! TO.N,Net-(D4-K)*
X121140000Y-110980000D03*
G04 #@! TO.P,D4,2,A_2*
G04 #@! TO.N,Net-(D4-A)*
X121140000Y-108880000D03*
G04 #@! TD*
D32*
G04 #@! TO.P,J1,*
G04 #@! TO.N,*
X126020000Y-73890000D03*
X139510000Y-96240000D03*
X152990000Y-73890000D03*
D33*
G04 #@! TO.P,J1,1,Pin_1_1*
G04 #@! TO.N,9V_POS*
X113730000Y-91510000D03*
D34*
G04 #@! TO.P,J1,2,Pin_2_2*
G04 #@! TO.N,GND*
X113730000Y-78630000D03*
G04 #@! TD*
D35*
G04 #@! TO.N,GND*
X145080000Y-78170000D03*
X128620000Y-115370000D03*
X142370000Y-117530000D03*
X138240000Y-104580000D03*
X154225000Y-101610000D03*
X139750000Y-82500000D03*
X126787500Y-84950000D03*
X148020000Y-107430000D03*
X143860000Y-87040000D03*
X127930000Y-86560000D03*
X140580000Y-101770000D03*
G04 #@! TO.N,9V_POS*
X151015000Y-100060000D03*
X153540000Y-84570000D03*
G04 #@! TD*
G04 #@! TO.N,9V_POS*
D36*
X150283000Y-101670000D02*
X147968000Y-103985000D01*
X150950000Y-101670000D02*
X150283000Y-101670000D01*
G04 #@! TO.N,9V_NEG*
X143425000Y-98755000D02*
X149170000Y-93010000D01*
X143425000Y-101760000D02*
X143425000Y-98755000D01*
D37*
X143425000Y-105494500D02*
X143435000Y-105504500D01*
X143425000Y-101760000D02*
X143425000Y-105494500D01*
G04 #@! TO.N,9V_POS*
D36*
X118247500Y-86992500D02*
X113730000Y-91510000D01*
X121940000Y-86992500D02*
X118247500Y-86992500D01*
G04 #@! TO.N,Net-(D1-K)*
D37*
X126125000Y-83692500D02*
X126787500Y-83030000D01*
X121940000Y-83692500D02*
X126125000Y-83692500D01*
G04 #@! TO.N,GND*
X128307800Y-111269400D02*
X128307800Y-113250600D01*
X147968000Y-107378000D02*
X148020000Y-107430000D01*
X140005000Y-117630000D02*
X142270000Y-117630000D01*
X138295000Y-104635000D02*
X138240000Y-104580000D01*
X147240000Y-78790000D02*
X145700000Y-78790000D01*
X142270000Y-117630000D02*
X142370000Y-117530000D01*
X128115000Y-86375000D02*
X127930000Y-86560000D01*
X154165000Y-101670000D02*
X154225000Y-101610000D01*
X139890000Y-82360000D02*
X139750000Y-82500000D01*
X143880000Y-87020000D02*
X143860000Y-87040000D01*
X128307800Y-113250600D02*
X127728400Y-113830000D01*
X129760000Y-86375000D02*
X128115000Y-86375000D01*
X145700000Y-78790000D02*
X145080000Y-78170000D01*
X126915600Y-113830000D02*
X127080000Y-113830000D01*
X134692500Y-86375000D02*
X129760000Y-86375000D01*
X145610000Y-87020000D02*
X143880000Y-87020000D01*
X142092000Y-104635000D02*
X138295000Y-104635000D01*
X127728400Y-113830000D02*
X126915600Y-113830000D01*
X140590000Y-101760000D02*
X140580000Y-101770000D01*
X141875000Y-101760000D02*
X140590000Y-101760000D01*
X135897500Y-85170000D02*
X134692500Y-86375000D01*
X141210000Y-82360000D02*
X139890000Y-82360000D01*
X126787500Y-83870000D02*
X126787500Y-84950000D01*
X147968000Y-105935000D02*
X147968000Y-107378000D01*
X130827200Y-108750000D02*
X128307800Y-111269400D01*
X131640000Y-108750000D02*
X130827200Y-108750000D01*
X127080000Y-113830000D02*
X128620000Y-115370000D01*
X152205000Y-101670000D02*
X154165000Y-101670000D01*
G04 #@! TO.N,Staircase*
X133875000Y-117660000D02*
X128575000Y-117660000D01*
X117730000Y-113745000D02*
X115745000Y-113745000D01*
X138355000Y-117630000D02*
X137550000Y-118435000D01*
X122265000Y-116120000D02*
X127035000Y-116120000D01*
X118910000Y-114925000D02*
X117730000Y-113745000D01*
X152585635Y-112400000D02*
X146580635Y-118405000D01*
X165080000Y-112400000D02*
X152585635Y-112400000D01*
X128575000Y-117660000D02*
X128505000Y-117590000D01*
X114130000Y-115360000D02*
X114100000Y-115390000D01*
X121070000Y-114925000D02*
X122265000Y-116120000D01*
X139130000Y-118405000D02*
X138355000Y-117630000D01*
X134650000Y-118435000D02*
X133875000Y-117660000D01*
X146580635Y-118405000D02*
X139130000Y-118405000D01*
X115745000Y-113745000D02*
X114100000Y-115390000D01*
X114130000Y-111670000D02*
X114130000Y-115360000D01*
X127035000Y-116120000D02*
X128505000Y-117590000D01*
X137550000Y-118435000D02*
X134650000Y-118435000D01*
X121070000Y-114925000D02*
X118910000Y-114925000D01*
G04 #@! TO.N,Net-(D1-K)*
X126787500Y-83030000D02*
X126820000Y-83030000D01*
X126820000Y-83030000D02*
X128615000Y-84825000D01*
X126787500Y-83030000D02*
X126787500Y-79692500D01*
X126787500Y-79692500D02*
X126810000Y-79670000D01*
X134742500Y-84825000D02*
X135897500Y-83670000D01*
X129760000Y-84825000D02*
X134742500Y-84825000D01*
X128615000Y-84825000D02*
X129760000Y-84825000D01*
G04 #@! TO.N,5V*
D38*
X135897500Y-80572500D02*
X138720000Y-77750000D01*
X135907500Y-82180000D02*
X136420000Y-82180000D01*
X135897500Y-82170000D02*
X135897500Y-80572500D01*
X135897500Y-82170000D02*
X135907500Y-82180000D01*
X137470000Y-83230000D02*
X137470000Y-99110000D01*
X136420000Y-82180000D02*
X137470000Y-83230000D01*
X137470000Y-99110000D02*
X131640000Y-104940000D01*
G04 #@! TO.N,Square*
X148747192Y-109797500D02*
X134770300Y-109797500D01*
X154480000Y-106510000D02*
X151445000Y-106510000D01*
X132452800Y-107480000D02*
X131640000Y-107480000D01*
X150940000Y-107015000D02*
X150940000Y-107604692D01*
X134770300Y-109797500D02*
X132452800Y-107480000D01*
X150940000Y-107604692D02*
X148747192Y-109797500D01*
D37*
X139820000Y-103725000D02*
X136096600Y-103725000D01*
D38*
X154480000Y-106510000D02*
X156610000Y-106510000D01*
D37*
X140080000Y-103985000D02*
X139820000Y-103725000D01*
D38*
X151445000Y-106510000D02*
X150940000Y-107015000D01*
D37*
X136096600Y-103725000D02*
X132341600Y-107480000D01*
D38*
X156610000Y-106510000D02*
X159510000Y-109410000D01*
D37*
X142092000Y-103985000D02*
X140080000Y-103985000D01*
G04 #@! TO.N,Net-(IC1-1IN+)*
X141375000Y-105285000D02*
X141285000Y-105375000D01*
X142092000Y-105285000D02*
X141375000Y-105285000D01*
X142395000Y-107950000D02*
X139820000Y-105375000D01*
X143995000Y-107950000D02*
X142395000Y-107950000D01*
X141285000Y-105375000D02*
X139820000Y-105375000D01*
G04 #@! TO.N,Net-(IC1-2IN-)*
X150860000Y-105285000D02*
X150940000Y-105365000D01*
X147968000Y-105285000D02*
X150860000Y-105285000D01*
G04 #@! TO.N,Triangle*
D38*
X147968000Y-104635000D02*
X148043000Y-104560000D01*
X148043000Y-104560000D02*
X149055500Y-104560000D01*
X147055500Y-104635000D02*
X147968000Y-104635000D01*
X149055500Y-104350000D02*
X154170000Y-104350000D01*
X145645000Y-107950000D02*
X145645000Y-106045500D01*
D37*
X146842500Y-109147500D02*
X145645000Y-107950000D01*
D38*
X145645000Y-106045500D02*
X147055500Y-104635000D01*
D37*
X154830000Y-104960000D02*
X154480000Y-104610000D01*
D38*
X154170000Y-104350000D02*
X154455000Y-104635000D01*
D37*
X148440000Y-109147500D02*
X146842500Y-109147500D01*
D38*
X159510000Y-104960000D02*
X154830000Y-104960000D01*
X149055500Y-104560000D02*
X149055500Y-104350000D01*
D37*
X154455000Y-104635000D02*
X154480000Y-104610000D01*
G04 #@! TO.N,Net-(D7-K)*
X148440000Y-111247500D02*
X148440000Y-114050000D01*
X148440000Y-114050000D02*
X148910000Y-114520000D01*
G04 #@! TO.N,Net-(D6-K)*
X135525000Y-115802500D02*
X136480000Y-114847500D01*
X135525000Y-117660000D02*
X135525000Y-115802500D01*
G04 #@! TO.N,Net-(D3-A)*
X126553100Y-105847500D02*
X126915600Y-106210000D01*
X114142500Y-105847500D02*
X126553100Y-105847500D01*
G04 #@! TO.N,Net-(D2-A)*
X126908100Y-107487500D02*
X126915600Y-107480000D01*
X117710000Y-107487500D02*
X126908100Y-107487500D01*
G04 #@! TO.N,Net-(D4-A)*
X126785600Y-108880000D02*
X126915600Y-108750000D01*
X121140000Y-108880000D02*
X126785600Y-108880000D01*
G04 #@! TO.N,Net-(D5-A)*
X124220000Y-114554000D02*
X126214000Y-112560000D01*
X126214000Y-112560000D02*
X126915600Y-112560000D01*
X124220000Y-115357500D02*
X124220000Y-114554000D01*
G04 #@! TO.N,Net-(D6-A)*
X131640000Y-112560000D02*
X136292500Y-112560000D01*
X136292500Y-112560000D02*
X136480000Y-112747500D01*
G04 #@! TO.N,Net-(D5-K)*
X124352500Y-117590000D02*
X124220000Y-117457500D01*
X126855000Y-117590000D02*
X124352500Y-117590000D01*
G04 #@! TO.N,Net-(D2-K)*
X117730000Y-109607500D02*
X117710000Y-109587500D01*
X117730000Y-112095000D02*
X117730000Y-109607500D01*
G04 #@! TO.N,Net-(D3-K)*
X114130000Y-107960000D02*
X114142500Y-107947500D01*
X114130000Y-110020000D02*
X114130000Y-107960000D01*
G04 #@! TO.N,Net-(J2-Pin_1)*
X164660000Y-114520000D02*
X165080000Y-114940000D01*
D36*
X156530000Y-114520000D02*
X164660000Y-114520000D01*
G04 #@! TO.N,Net-(D4-K)*
D37*
X121070000Y-111050000D02*
X121140000Y-110980000D01*
X121070000Y-113275000D02*
X121070000Y-111050000D01*
G04 #@! TO.N,Net-(U2-CAP+)*
X142670000Y-85750000D02*
X145610000Y-85750000D01*
X140640000Y-87780000D02*
X142670000Y-85750000D01*
G04 #@! TO.N,Net-(U2-CAP-)*
X143730000Y-88290000D02*
X140640000Y-91380000D01*
X145610000Y-88290000D02*
X143730000Y-88290000D01*
G04 #@! TO.N,9V_NEG*
X143004500Y-105935000D02*
X142092000Y-105935000D01*
D36*
X151850000Y-77780000D02*
X156040000Y-77780000D01*
X157850000Y-83320000D02*
X152880000Y-88290000D01*
X157850000Y-79590000D02*
X157850000Y-83320000D01*
D37*
X143435000Y-105504500D02*
X143004500Y-105935000D01*
D38*
X151058300Y-91121700D02*
X149170000Y-93010000D01*
X151058300Y-88290000D02*
X151058300Y-91121700D01*
D36*
X150840000Y-78790000D02*
X151850000Y-77780000D01*
X156040000Y-77780000D02*
X157850000Y-79590000D01*
X152880000Y-88290000D02*
X151058300Y-88290000D01*
G04 #@! TO.N,9V_POS*
D38*
X141210000Y-76890000D02*
X139750000Y-75430000D01*
X141210000Y-80810000D02*
X141860000Y-81460000D01*
X125380040Y-75435000D02*
X125375040Y-75430000D01*
X126659960Y-75435000D02*
X125380040Y-75435000D01*
D37*
X150950000Y-101670000D02*
X150950000Y-100125000D01*
D36*
X121930000Y-76160000D02*
X113730000Y-84360000D01*
D38*
X126664960Y-75430000D02*
X126659960Y-75435000D01*
D36*
X151058300Y-84480000D02*
X151900000Y-84480000D01*
X153450000Y-84480000D02*
X153540000Y-84570000D01*
D38*
X122660000Y-75430000D02*
X121930000Y-76160000D01*
D36*
X151058300Y-84480000D02*
X153450000Y-84480000D01*
D38*
X148038300Y-81460000D02*
X151058300Y-84480000D01*
X125375040Y-75430000D02*
X122660000Y-75430000D01*
X139750000Y-75430000D02*
X126664960Y-75430000D01*
D37*
X150950000Y-100125000D02*
X151015000Y-100060000D01*
D36*
X151900000Y-84480000D02*
X155820000Y-80560000D01*
D38*
X141210000Y-80810000D02*
X141210000Y-76890000D01*
X141860000Y-81460000D02*
X148038300Y-81460000D01*
D36*
X113730000Y-84360000D02*
X113730000Y-91510000D01*
G04 #@! TO.N,Net-(U3-5)*
D37*
X127728400Y-104940000D02*
X128998400Y-106210000D01*
X126915600Y-104940000D02*
X127728400Y-104940000D01*
X128998400Y-106210000D02*
X131640000Y-106210000D01*
G04 #@! TD*
D39*
X109911182Y-120525892D02*
X109959924Y-69308178D01*
X109959924Y-69308178D02*
G75*
G02*
X112404111Y-66511153I2191976J550978D01*
G01*
X112404108Y-66511182D02*
X165849049Y-66908020D01*
X112630000Y-122980000D02*
G75*
G02*
X109919177Y-120526790I-472800J2201900D01*
G01*
X112630000Y-122980000D02*
X112720000Y-122976045D01*
X165849049Y-66908020D02*
G75*
G02*
X168646045Y-69352204I550951J-2191980D01*
G01*
X166517796Y-122976045D02*
X112720000Y-122976045D01*
X168646045Y-69352204D02*
X168961980Y-120179049D01*
X168961980Y-120179049D02*
G75*
G02*
X166517796Y-122976045I-2191980J-550951D01*
G01*
M02*
