G04 #@! TF.GenerationSoftware,KiCad,Pcbnew,10.0.1*
G04 #@! TF.CreationDate,2026-04-28T14:02:31+01:00*
G04 #@! TF.ProjectId,curve_tracer,63757276-655f-4747-9261-6365722e6b69,rev?*
G04 #@! TF.SameCoordinates,Original*
G04 #@! TF.FileFunction,AssemblyDrawing,Bot*
%FSLAX46Y46*%
G04 Gerber Fmt 4.6, Leading zero omitted, Abs format (unit mm)*
G04 Created by KiCad (PCBNEW 10.0.1) date 2026-04-28 14:02:31*
%MOMM*%
%LPD*%
G01*
G04 APERTURE LIST*
%ADD10C,0.150000*%
%ADD11C,0.100000*%
G04 #@! TA.AperFunction,Profile*
%ADD12C,0.050000*%
G04 #@! TD*
G04 APERTURE END LIST*
D10*
X118903333Y-88304819D02*
X118903333Y-89019104D01*
X118903333Y-89019104D02*
X118950952Y-89161961D01*
X118950952Y-89161961D02*
X119046190Y-89257200D01*
X119046190Y-89257200D02*
X119189047Y-89304819D01*
X119189047Y-89304819D02*
X119284285Y-89304819D01*
X117903333Y-89304819D02*
X118474761Y-89304819D01*
X118189047Y-89304819D02*
X118189047Y-88304819D01*
X118189047Y-88304819D02*
X118284285Y-88447676D01*
X118284285Y-88447676D02*
X118379523Y-88542914D01*
X118379523Y-88542914D02*
X118474761Y-88590533D01*
G04 #@! TO.C,J1*
D11*
X111780000Y-72240000D02*
X111780000Y-96610000D01*
X111780000Y-91060000D02*
X112230000Y-91510000D01*
X112230000Y-91510000D02*
X111780000Y-91960000D01*
X117380000Y-69340000D02*
X117380000Y-72240000D01*
X117380000Y-69340000D02*
X166720000Y-69340000D01*
X117380000Y-72240000D02*
X111780000Y-72240000D01*
X117380000Y-96610000D02*
X111780000Y-96610000D01*
X117380000Y-96610000D02*
X117380000Y-100710000D01*
X117380000Y-100710000D02*
X166720000Y-100710000D01*
X166720000Y-69340000D02*
X166720000Y-100710000D01*
G04 #@! TD*
D12*
X109911182Y-120525892D02*
X109959924Y-69308178D01*
X109959924Y-69308178D02*
G75*
G02*
X112404111Y-66511153I2191976J550978D01*
G01*
X112404108Y-66511182D02*
X165849049Y-66908020D01*
X112630000Y-122980000D02*
G75*
G02*
X109919177Y-120526790I-472800J2201900D01*
G01*
X112630000Y-122980000D02*
X112720000Y-122976045D01*
X165849049Y-66908020D02*
G75*
G02*
X168646045Y-69352204I550951J-2191980D01*
G01*
X166517796Y-122976045D02*
X112720000Y-122976045D01*
X168646045Y-69352204D02*
X168961980Y-120179049D01*
X168961980Y-120179049D02*
G75*
G02*
X166517796Y-122976045I-2191980J-550951D01*
G01*
M02*
