G04 #@! TF.GenerationSoftware,KiCad,Pcbnew,10.0.1*
G04 #@! TF.CreationDate,2026-04-28T14:02:31+01:00*
G04 #@! TF.ProjectId,curve_tracer,63757276-655f-4747-9261-6365722e6b69,rev?*
G04 #@! TF.SameCoordinates,Original*
G04 #@! TF.FileFunction,AssemblyDrawing,Top*
%FSLAX46Y46*%
G04 Gerber Fmt 4.6, Leading zero omitted, Abs format (unit mm)*
G04 Created by KiCad (PCBNEW 10.0.1) date 2026-04-28 14:02:31*
%MOMM*%
%LPD*%
G01*
G04 APERTURE LIST*
%ADD10C,0.060000*%
%ADD11C,0.150000*%
%ADD12C,0.120000*%
%ADD13C,0.080000*%
%ADD14C,0.100000*%
%ADD15C,0.025400*%
%ADD16C,0.127000*%
%ADD17C,0.200000*%
G04 #@! TA.AperFunction,Profile*
%ADD18C,0.050000*%
G04 #@! TD*
G04 APERTURE END LIST*
D10*
X141859524Y-101903832D02*
X141840476Y-101922880D01*
X141840476Y-101922880D02*
X141783334Y-101941927D01*
X141783334Y-101941927D02*
X141745238Y-101941927D01*
X141745238Y-101941927D02*
X141688095Y-101922880D01*
X141688095Y-101922880D02*
X141650000Y-101884784D01*
X141650000Y-101884784D02*
X141630953Y-101846689D01*
X141630953Y-101846689D02*
X141611905Y-101770499D01*
X141611905Y-101770499D02*
X141611905Y-101713356D01*
X141611905Y-101713356D02*
X141630953Y-101637165D01*
X141630953Y-101637165D02*
X141650000Y-101599070D01*
X141650000Y-101599070D02*
X141688095Y-101560975D01*
X141688095Y-101560975D02*
X141745238Y-101541927D01*
X141745238Y-101541927D02*
X141783334Y-101541927D01*
X141783334Y-101541927D02*
X141840476Y-101560975D01*
X141840476Y-101560975D02*
X141859524Y-101580022D01*
X141935715Y-101980022D02*
X142240476Y-101980022D01*
X142469048Y-101732403D02*
X142526191Y-101751451D01*
X142526191Y-101751451D02*
X142545238Y-101770499D01*
X142545238Y-101770499D02*
X142564286Y-101808594D01*
X142564286Y-101808594D02*
X142564286Y-101865737D01*
X142564286Y-101865737D02*
X142545238Y-101903832D01*
X142545238Y-101903832D02*
X142526191Y-101922880D01*
X142526191Y-101922880D02*
X142488096Y-101941927D01*
X142488096Y-101941927D02*
X142335715Y-101941927D01*
X142335715Y-101941927D02*
X142335715Y-101541927D01*
X142335715Y-101541927D02*
X142469048Y-101541927D01*
X142469048Y-101541927D02*
X142507143Y-101560975D01*
X142507143Y-101560975D02*
X142526191Y-101580022D01*
X142526191Y-101580022D02*
X142545238Y-101618118D01*
X142545238Y-101618118D02*
X142545238Y-101656213D01*
X142545238Y-101656213D02*
X142526191Y-101694308D01*
X142526191Y-101694308D02*
X142507143Y-101713356D01*
X142507143Y-101713356D02*
X142469048Y-101732403D01*
X142469048Y-101732403D02*
X142335715Y-101732403D01*
X142811905Y-101751451D02*
X142811905Y-101941927D01*
X142678572Y-101541927D02*
X142811905Y-101751451D01*
X142811905Y-101751451D02*
X142945238Y-101541927D01*
X143078572Y-101941927D02*
X143078572Y-101541927D01*
X143078572Y-101541927D02*
X143230953Y-101541927D01*
X143230953Y-101541927D02*
X143269048Y-101560975D01*
X143269048Y-101560975D02*
X143288095Y-101580022D01*
X143288095Y-101580022D02*
X143307143Y-101618118D01*
X143307143Y-101618118D02*
X143307143Y-101675260D01*
X143307143Y-101675260D02*
X143288095Y-101713356D01*
X143288095Y-101713356D02*
X143269048Y-101732403D01*
X143269048Y-101732403D02*
X143230953Y-101751451D01*
X143230953Y-101751451D02*
X143078572Y-101751451D01*
X143688095Y-101941927D02*
X143459524Y-101941927D01*
X143573810Y-101941927D02*
X143573810Y-101541927D01*
X143573810Y-101541927D02*
X143535714Y-101599070D01*
X143535714Y-101599070D02*
X143497619Y-101637165D01*
X143497619Y-101637165D02*
X143459524Y-101656213D01*
X139113333Y-117811927D02*
X138980000Y-117621451D01*
X138884762Y-117811927D02*
X138884762Y-117411927D01*
X138884762Y-117411927D02*
X139037143Y-117411927D01*
X139037143Y-117411927D02*
X139075238Y-117430975D01*
X139075238Y-117430975D02*
X139094285Y-117450022D01*
X139094285Y-117450022D02*
X139113333Y-117488118D01*
X139113333Y-117488118D02*
X139113333Y-117545260D01*
X139113333Y-117545260D02*
X139094285Y-117583356D01*
X139094285Y-117583356D02*
X139075238Y-117602403D01*
X139075238Y-117602403D02*
X139037143Y-117621451D01*
X139037143Y-117621451D02*
X138884762Y-117621451D01*
X139303809Y-117811927D02*
X139380000Y-117811927D01*
X139380000Y-117811927D02*
X139418095Y-117792880D01*
X139418095Y-117792880D02*
X139437143Y-117773832D01*
X139437143Y-117773832D02*
X139475238Y-117716689D01*
X139475238Y-117716689D02*
X139494285Y-117640499D01*
X139494285Y-117640499D02*
X139494285Y-117488118D01*
X139494285Y-117488118D02*
X139475238Y-117450022D01*
X139475238Y-117450022D02*
X139456190Y-117430975D01*
X139456190Y-117430975D02*
X139418095Y-117411927D01*
X139418095Y-117411927D02*
X139341904Y-117411927D01*
X139341904Y-117411927D02*
X139303809Y-117430975D01*
X139303809Y-117430975D02*
X139284762Y-117450022D01*
X139284762Y-117450022D02*
X139265714Y-117488118D01*
X139265714Y-117488118D02*
X139265714Y-117583356D01*
X139265714Y-117583356D02*
X139284762Y-117621451D01*
X139284762Y-117621451D02*
X139303809Y-117640499D01*
X139303809Y-117640499D02*
X139341904Y-117659546D01*
X139341904Y-117659546D02*
X139418095Y-117659546D01*
X139418095Y-117659546D02*
X139456190Y-117640499D01*
X139456190Y-117640499D02*
X139475238Y-117621451D01*
X139475238Y-117621451D02*
X139494285Y-117583356D01*
X150934524Y-101813832D02*
X150915476Y-101832880D01*
X150915476Y-101832880D02*
X150858334Y-101851927D01*
X150858334Y-101851927D02*
X150820238Y-101851927D01*
X150820238Y-101851927D02*
X150763095Y-101832880D01*
X150763095Y-101832880D02*
X150725000Y-101794784D01*
X150725000Y-101794784D02*
X150705953Y-101756689D01*
X150705953Y-101756689D02*
X150686905Y-101680499D01*
X150686905Y-101680499D02*
X150686905Y-101623356D01*
X150686905Y-101623356D02*
X150705953Y-101547165D01*
X150705953Y-101547165D02*
X150725000Y-101509070D01*
X150725000Y-101509070D02*
X150763095Y-101470975D01*
X150763095Y-101470975D02*
X150820238Y-101451927D01*
X150820238Y-101451927D02*
X150858334Y-101451927D01*
X150858334Y-101451927D02*
X150915476Y-101470975D01*
X150915476Y-101470975D02*
X150934524Y-101490022D01*
X151010715Y-101890022D02*
X151315476Y-101890022D01*
X151544048Y-101642403D02*
X151601191Y-101661451D01*
X151601191Y-101661451D02*
X151620238Y-101680499D01*
X151620238Y-101680499D02*
X151639286Y-101718594D01*
X151639286Y-101718594D02*
X151639286Y-101775737D01*
X151639286Y-101775737D02*
X151620238Y-101813832D01*
X151620238Y-101813832D02*
X151601191Y-101832880D01*
X151601191Y-101832880D02*
X151563096Y-101851927D01*
X151563096Y-101851927D02*
X151410715Y-101851927D01*
X151410715Y-101851927D02*
X151410715Y-101451927D01*
X151410715Y-101451927D02*
X151544048Y-101451927D01*
X151544048Y-101451927D02*
X151582143Y-101470975D01*
X151582143Y-101470975D02*
X151601191Y-101490022D01*
X151601191Y-101490022D02*
X151620238Y-101528118D01*
X151620238Y-101528118D02*
X151620238Y-101566213D01*
X151620238Y-101566213D02*
X151601191Y-101604308D01*
X151601191Y-101604308D02*
X151582143Y-101623356D01*
X151582143Y-101623356D02*
X151544048Y-101642403D01*
X151544048Y-101642403D02*
X151410715Y-101642403D01*
X151886905Y-101661451D02*
X151886905Y-101851927D01*
X151753572Y-101451927D02*
X151886905Y-101661451D01*
X151886905Y-101661451D02*
X152020238Y-101451927D01*
X152153572Y-101851927D02*
X152153572Y-101451927D01*
X152153572Y-101451927D02*
X152305953Y-101451927D01*
X152305953Y-101451927D02*
X152344048Y-101470975D01*
X152344048Y-101470975D02*
X152363095Y-101490022D01*
X152363095Y-101490022D02*
X152382143Y-101528118D01*
X152382143Y-101528118D02*
X152382143Y-101585260D01*
X152382143Y-101585260D02*
X152363095Y-101623356D01*
X152363095Y-101623356D02*
X152344048Y-101642403D01*
X152344048Y-101642403D02*
X152305953Y-101661451D01*
X152305953Y-101661451D02*
X152153572Y-101661451D01*
X152534524Y-101490022D02*
X152553572Y-101470975D01*
X152553572Y-101470975D02*
X152591667Y-101451927D01*
X152591667Y-101451927D02*
X152686905Y-101451927D01*
X152686905Y-101451927D02*
X152725000Y-101470975D01*
X152725000Y-101470975D02*
X152744048Y-101490022D01*
X152744048Y-101490022D02*
X152763095Y-101528118D01*
X152763095Y-101528118D02*
X152763095Y-101566213D01*
X152763095Y-101566213D02*
X152744048Y-101623356D01*
X152744048Y-101623356D02*
X152515476Y-101851927D01*
X152515476Y-101851927D02*
X152763095Y-101851927D01*
X134633333Y-117841927D02*
X134500000Y-117651451D01*
X134404762Y-117841927D02*
X134404762Y-117441927D01*
X134404762Y-117441927D02*
X134557143Y-117441927D01*
X134557143Y-117441927D02*
X134595238Y-117460975D01*
X134595238Y-117460975D02*
X134614285Y-117480022D01*
X134614285Y-117480022D02*
X134633333Y-117518118D01*
X134633333Y-117518118D02*
X134633333Y-117575260D01*
X134633333Y-117575260D02*
X134614285Y-117613356D01*
X134614285Y-117613356D02*
X134595238Y-117632403D01*
X134595238Y-117632403D02*
X134557143Y-117651451D01*
X134557143Y-117651451D02*
X134404762Y-117651451D01*
X134861904Y-117613356D02*
X134823809Y-117594308D01*
X134823809Y-117594308D02*
X134804762Y-117575260D01*
X134804762Y-117575260D02*
X134785714Y-117537165D01*
X134785714Y-117537165D02*
X134785714Y-117518118D01*
X134785714Y-117518118D02*
X134804762Y-117480022D01*
X134804762Y-117480022D02*
X134823809Y-117460975D01*
X134823809Y-117460975D02*
X134861904Y-117441927D01*
X134861904Y-117441927D02*
X134938095Y-117441927D01*
X134938095Y-117441927D02*
X134976190Y-117460975D01*
X134976190Y-117460975D02*
X134995238Y-117480022D01*
X134995238Y-117480022D02*
X135014285Y-117518118D01*
X135014285Y-117518118D02*
X135014285Y-117537165D01*
X135014285Y-117537165D02*
X134995238Y-117575260D01*
X134995238Y-117575260D02*
X134976190Y-117594308D01*
X134976190Y-117594308D02*
X134938095Y-117613356D01*
X134938095Y-117613356D02*
X134861904Y-117613356D01*
X134861904Y-117613356D02*
X134823809Y-117632403D01*
X134823809Y-117632403D02*
X134804762Y-117651451D01*
X134804762Y-117651451D02*
X134785714Y-117689546D01*
X134785714Y-117689546D02*
X134785714Y-117765737D01*
X134785714Y-117765737D02*
X134804762Y-117803832D01*
X134804762Y-117803832D02*
X134823809Y-117822880D01*
X134823809Y-117822880D02*
X134861904Y-117841927D01*
X134861904Y-117841927D02*
X134938095Y-117841927D01*
X134938095Y-117841927D02*
X134976190Y-117822880D01*
X134976190Y-117822880D02*
X134995238Y-117803832D01*
X134995238Y-117803832D02*
X135014285Y-117765737D01*
X135014285Y-117765737D02*
X135014285Y-117689546D01*
X135014285Y-117689546D02*
X134995238Y-117651451D01*
X134995238Y-117651451D02*
X134976190Y-117632403D01*
X134976190Y-117632403D02*
X134938095Y-117613356D01*
D11*
X126661600Y-102693019D02*
X126661600Y-102931114D01*
X126423505Y-102835876D02*
X126661600Y-102931114D01*
X126661600Y-102931114D02*
X126899695Y-102835876D01*
X126518743Y-103121590D02*
X126661600Y-102931114D01*
X126661600Y-102931114D02*
X126804457Y-103121590D01*
X126661600Y-102693019D02*
X126661600Y-102931114D01*
X126423505Y-102835876D02*
X126661600Y-102931114D01*
X126661600Y-102931114D02*
X126899695Y-102835876D01*
X126518743Y-103121590D02*
X126661600Y-102931114D01*
X126661600Y-102931114D02*
X126804457Y-103121590D01*
D10*
X127613333Y-117771927D02*
X127480000Y-117581451D01*
X127384762Y-117771927D02*
X127384762Y-117371927D01*
X127384762Y-117371927D02*
X127537143Y-117371927D01*
X127537143Y-117371927D02*
X127575238Y-117390975D01*
X127575238Y-117390975D02*
X127594285Y-117410022D01*
X127594285Y-117410022D02*
X127613333Y-117448118D01*
X127613333Y-117448118D02*
X127613333Y-117505260D01*
X127613333Y-117505260D02*
X127594285Y-117543356D01*
X127594285Y-117543356D02*
X127575238Y-117562403D01*
X127575238Y-117562403D02*
X127537143Y-117581451D01*
X127537143Y-117581451D02*
X127384762Y-117581451D01*
X127746666Y-117371927D02*
X128013333Y-117371927D01*
X128013333Y-117371927D02*
X127841904Y-117771927D01*
D11*
X146721250Y-83414119D02*
X146721250Y-83652214D01*
X146483155Y-83556976D02*
X146721250Y-83652214D01*
X146721250Y-83652214D02*
X146959345Y-83556976D01*
X146578393Y-83842690D02*
X146721250Y-83652214D01*
X146721250Y-83652214D02*
X146864107Y-83842690D01*
X146721250Y-83414119D02*
X146721250Y-83652214D01*
X146483155Y-83556976D02*
X146721250Y-83652214D01*
X146721250Y-83652214D02*
X146959345Y-83556976D01*
X146578393Y-83842690D02*
X146721250Y-83652214D01*
X146721250Y-83652214D02*
X146864107Y-83842690D01*
X147572245Y-85839819D02*
X147572245Y-86649342D01*
X147572245Y-86649342D02*
X147619864Y-86744580D01*
X147619864Y-86744580D02*
X147667483Y-86792200D01*
X147667483Y-86792200D02*
X147762721Y-86839819D01*
X147762721Y-86839819D02*
X147953197Y-86839819D01*
X147953197Y-86839819D02*
X148048435Y-86792200D01*
X148048435Y-86792200D02*
X148096054Y-86744580D01*
X148096054Y-86744580D02*
X148143673Y-86649342D01*
X148143673Y-86649342D02*
X148143673Y-85839819D01*
X148572245Y-85935057D02*
X148619864Y-85887438D01*
X148619864Y-85887438D02*
X148715102Y-85839819D01*
X148715102Y-85839819D02*
X148953197Y-85839819D01*
X148953197Y-85839819D02*
X149048435Y-85887438D01*
X149048435Y-85887438D02*
X149096054Y-85935057D01*
X149096054Y-85935057D02*
X149143673Y-86030295D01*
X149143673Y-86030295D02*
X149143673Y-86125533D01*
X149143673Y-86125533D02*
X149096054Y-86268390D01*
X149096054Y-86268390D02*
X148524626Y-86839819D01*
X148524626Y-86839819D02*
X149143673Y-86839819D01*
D10*
X141353832Y-82375475D02*
X141372880Y-82394523D01*
X141372880Y-82394523D02*
X141391927Y-82451665D01*
X141391927Y-82451665D02*
X141391927Y-82489761D01*
X141391927Y-82489761D02*
X141372880Y-82546904D01*
X141372880Y-82546904D02*
X141334784Y-82584999D01*
X141334784Y-82584999D02*
X141296689Y-82604046D01*
X141296689Y-82604046D02*
X141220499Y-82623094D01*
X141220499Y-82623094D02*
X141163356Y-82623094D01*
X141163356Y-82623094D02*
X141087165Y-82604046D01*
X141087165Y-82604046D02*
X141049070Y-82584999D01*
X141049070Y-82584999D02*
X141010975Y-82546904D01*
X141010975Y-82546904D02*
X140991927Y-82489761D01*
X140991927Y-82489761D02*
X140991927Y-82451665D01*
X140991927Y-82451665D02*
X141010975Y-82394523D01*
X141010975Y-82394523D02*
X141030022Y-82375475D01*
X141430022Y-82299285D02*
X141430022Y-81994523D01*
X141182403Y-81765951D02*
X141201451Y-81708808D01*
X141201451Y-81708808D02*
X141220499Y-81689761D01*
X141220499Y-81689761D02*
X141258594Y-81670713D01*
X141258594Y-81670713D02*
X141315737Y-81670713D01*
X141315737Y-81670713D02*
X141353832Y-81689761D01*
X141353832Y-81689761D02*
X141372880Y-81708808D01*
X141372880Y-81708808D02*
X141391927Y-81746903D01*
X141391927Y-81746903D02*
X141391927Y-81899284D01*
X141391927Y-81899284D02*
X140991927Y-81899284D01*
X140991927Y-81899284D02*
X140991927Y-81765951D01*
X140991927Y-81765951D02*
X141010975Y-81727856D01*
X141010975Y-81727856D02*
X141030022Y-81708808D01*
X141030022Y-81708808D02*
X141068118Y-81689761D01*
X141068118Y-81689761D02*
X141106213Y-81689761D01*
X141106213Y-81689761D02*
X141144308Y-81708808D01*
X141144308Y-81708808D02*
X141163356Y-81727856D01*
X141163356Y-81727856D02*
X141182403Y-81765951D01*
X141182403Y-81765951D02*
X141182403Y-81899284D01*
X141201451Y-81423094D02*
X141391927Y-81423094D01*
X140991927Y-81556427D02*
X141201451Y-81423094D01*
X141201451Y-81423094D02*
X140991927Y-81289761D01*
X141391927Y-81156427D02*
X140991927Y-81156427D01*
X140991927Y-81156427D02*
X140991927Y-81004046D01*
X140991927Y-81004046D02*
X141010975Y-80965951D01*
X141010975Y-80965951D02*
X141030022Y-80946904D01*
X141030022Y-80946904D02*
X141068118Y-80927856D01*
X141068118Y-80927856D02*
X141125260Y-80927856D01*
X141125260Y-80927856D02*
X141163356Y-80946904D01*
X141163356Y-80946904D02*
X141182403Y-80965951D01*
X141182403Y-80965951D02*
X141201451Y-81004046D01*
X141201451Y-81004046D02*
X141201451Y-81156427D01*
X141125260Y-80584999D02*
X141391927Y-80584999D01*
X140972880Y-80680237D02*
X141258594Y-80775475D01*
X141258594Y-80775475D02*
X141258594Y-80527856D01*
X114311927Y-110911666D02*
X114121451Y-111044999D01*
X114311927Y-111140237D02*
X113911927Y-111140237D01*
X113911927Y-111140237D02*
X113911927Y-110987856D01*
X113911927Y-110987856D02*
X113930975Y-110949761D01*
X113930975Y-110949761D02*
X113950022Y-110930714D01*
X113950022Y-110930714D02*
X113988118Y-110911666D01*
X113988118Y-110911666D02*
X114045260Y-110911666D01*
X114045260Y-110911666D02*
X114083356Y-110930714D01*
X114083356Y-110930714D02*
X114102403Y-110949761D01*
X114102403Y-110949761D02*
X114121451Y-110987856D01*
X114121451Y-110987856D02*
X114121451Y-111140237D01*
X113911927Y-110549761D02*
X113911927Y-110740237D01*
X113911927Y-110740237D02*
X114102403Y-110759285D01*
X114102403Y-110759285D02*
X114083356Y-110740237D01*
X114083356Y-110740237D02*
X114064308Y-110702142D01*
X114064308Y-110702142D02*
X114064308Y-110606904D01*
X114064308Y-110606904D02*
X114083356Y-110568809D01*
X114083356Y-110568809D02*
X114102403Y-110549761D01*
X114102403Y-110549761D02*
X114140499Y-110530714D01*
X114140499Y-110530714D02*
X114235737Y-110530714D01*
X114235737Y-110530714D02*
X114273832Y-110549761D01*
X114273832Y-110549761D02*
X114292880Y-110568809D01*
X114292880Y-110568809D02*
X114311927Y-110606904D01*
X114311927Y-110606904D02*
X114311927Y-110702142D01*
X114311927Y-110702142D02*
X114292880Y-110740237D01*
X114292880Y-110740237D02*
X114273832Y-110759285D01*
D12*
X140927664Y-89713332D02*
X140965760Y-89751428D01*
X140965760Y-89751428D02*
X141003855Y-89865713D01*
X141003855Y-89865713D02*
X141003855Y-89941904D01*
X141003855Y-89941904D02*
X140965760Y-90056190D01*
X140965760Y-90056190D02*
X140889569Y-90132380D01*
X140889569Y-90132380D02*
X140813379Y-90170475D01*
X140813379Y-90170475D02*
X140660998Y-90208571D01*
X140660998Y-90208571D02*
X140546712Y-90208571D01*
X140546712Y-90208571D02*
X140394331Y-90170475D01*
X140394331Y-90170475D02*
X140318140Y-90132380D01*
X140318140Y-90132380D02*
X140241950Y-90056190D01*
X140241950Y-90056190D02*
X140203855Y-89941904D01*
X140203855Y-89941904D02*
X140203855Y-89865713D01*
X140203855Y-89865713D02*
X140241950Y-89751428D01*
X140241950Y-89751428D02*
X140280045Y-89713332D01*
X141003855Y-88951428D02*
X141003855Y-89408571D01*
X141003855Y-89179999D02*
X140203855Y-89179999D01*
X140203855Y-89179999D02*
X140318140Y-89256190D01*
X140318140Y-89256190D02*
X140394331Y-89332380D01*
X140394331Y-89332380D02*
X140432426Y-89408571D01*
D10*
X129903832Y-86390475D02*
X129922880Y-86409523D01*
X129922880Y-86409523D02*
X129941927Y-86466665D01*
X129941927Y-86466665D02*
X129941927Y-86504761D01*
X129941927Y-86504761D02*
X129922880Y-86561904D01*
X129922880Y-86561904D02*
X129884784Y-86599999D01*
X129884784Y-86599999D02*
X129846689Y-86619046D01*
X129846689Y-86619046D02*
X129770499Y-86638094D01*
X129770499Y-86638094D02*
X129713356Y-86638094D01*
X129713356Y-86638094D02*
X129637165Y-86619046D01*
X129637165Y-86619046D02*
X129599070Y-86599999D01*
X129599070Y-86599999D02*
X129560975Y-86561904D01*
X129560975Y-86561904D02*
X129541927Y-86504761D01*
X129541927Y-86504761D02*
X129541927Y-86466665D01*
X129541927Y-86466665D02*
X129560975Y-86409523D01*
X129560975Y-86409523D02*
X129580022Y-86390475D01*
X129980022Y-86314285D02*
X129980022Y-86009523D01*
X129732403Y-85780951D02*
X129751451Y-85723808D01*
X129751451Y-85723808D02*
X129770499Y-85704761D01*
X129770499Y-85704761D02*
X129808594Y-85685713D01*
X129808594Y-85685713D02*
X129865737Y-85685713D01*
X129865737Y-85685713D02*
X129903832Y-85704761D01*
X129903832Y-85704761D02*
X129922880Y-85723808D01*
X129922880Y-85723808D02*
X129941927Y-85761903D01*
X129941927Y-85761903D02*
X129941927Y-85914284D01*
X129941927Y-85914284D02*
X129541927Y-85914284D01*
X129541927Y-85914284D02*
X129541927Y-85780951D01*
X129541927Y-85780951D02*
X129560975Y-85742856D01*
X129560975Y-85742856D02*
X129580022Y-85723808D01*
X129580022Y-85723808D02*
X129618118Y-85704761D01*
X129618118Y-85704761D02*
X129656213Y-85704761D01*
X129656213Y-85704761D02*
X129694308Y-85723808D01*
X129694308Y-85723808D02*
X129713356Y-85742856D01*
X129713356Y-85742856D02*
X129732403Y-85780951D01*
X129732403Y-85780951D02*
X129732403Y-85914284D01*
X129751451Y-85438094D02*
X129941927Y-85438094D01*
X129541927Y-85571427D02*
X129751451Y-85438094D01*
X129751451Y-85438094D02*
X129541927Y-85304761D01*
X129941927Y-85171427D02*
X129541927Y-85171427D01*
X129541927Y-85171427D02*
X129541927Y-85019046D01*
X129541927Y-85019046D02*
X129560975Y-84980951D01*
X129560975Y-84980951D02*
X129580022Y-84961904D01*
X129580022Y-84961904D02*
X129618118Y-84942856D01*
X129618118Y-84942856D02*
X129675260Y-84942856D01*
X129675260Y-84942856D02*
X129713356Y-84961904D01*
X129713356Y-84961904D02*
X129732403Y-84980951D01*
X129732403Y-84980951D02*
X129751451Y-85019046D01*
X129751451Y-85019046D02*
X129751451Y-85171427D01*
X129541927Y-84809523D02*
X129541927Y-84561904D01*
X129541927Y-84561904D02*
X129694308Y-84695237D01*
X129694308Y-84695237D02*
X129694308Y-84638094D01*
X129694308Y-84638094D02*
X129713356Y-84599999D01*
X129713356Y-84599999D02*
X129732403Y-84580951D01*
X129732403Y-84580951D02*
X129770499Y-84561904D01*
X129770499Y-84561904D02*
X129865737Y-84561904D01*
X129865737Y-84561904D02*
X129903832Y-84580951D01*
X129903832Y-84580951D02*
X129922880Y-84599999D01*
X129922880Y-84599999D02*
X129941927Y-84638094D01*
X129941927Y-84638094D02*
X129941927Y-84752380D01*
X129941927Y-84752380D02*
X129922880Y-84790475D01*
X129922880Y-84790475D02*
X129903832Y-84809523D01*
D12*
X148906667Y-79077664D02*
X148868571Y-79115760D01*
X148868571Y-79115760D02*
X148754286Y-79153855D01*
X148754286Y-79153855D02*
X148678095Y-79153855D01*
X148678095Y-79153855D02*
X148563809Y-79115760D01*
X148563809Y-79115760D02*
X148487619Y-79039569D01*
X148487619Y-79039569D02*
X148449524Y-78963379D01*
X148449524Y-78963379D02*
X148411428Y-78810998D01*
X148411428Y-78810998D02*
X148411428Y-78696712D01*
X148411428Y-78696712D02*
X148449524Y-78544331D01*
X148449524Y-78544331D02*
X148487619Y-78468140D01*
X148487619Y-78468140D02*
X148563809Y-78391950D01*
X148563809Y-78391950D02*
X148678095Y-78353855D01*
X148678095Y-78353855D02*
X148754286Y-78353855D01*
X148754286Y-78353855D02*
X148868571Y-78391950D01*
X148868571Y-78391950D02*
X148906667Y-78430045D01*
X149211428Y-78430045D02*
X149249524Y-78391950D01*
X149249524Y-78391950D02*
X149325714Y-78353855D01*
X149325714Y-78353855D02*
X149516190Y-78353855D01*
X149516190Y-78353855D02*
X149592381Y-78391950D01*
X149592381Y-78391950D02*
X149630476Y-78430045D01*
X149630476Y-78430045D02*
X149668571Y-78506236D01*
X149668571Y-78506236D02*
X149668571Y-78582426D01*
X149668571Y-78582426D02*
X149630476Y-78696712D01*
X149630476Y-78696712D02*
X149173333Y-79153855D01*
X149173333Y-79153855D02*
X149668571Y-79153855D01*
D10*
X117911927Y-112986666D02*
X117721451Y-113119999D01*
X117911927Y-113215237D02*
X117511927Y-113215237D01*
X117511927Y-113215237D02*
X117511927Y-113062856D01*
X117511927Y-113062856D02*
X117530975Y-113024761D01*
X117530975Y-113024761D02*
X117550022Y-113005714D01*
X117550022Y-113005714D02*
X117588118Y-112986666D01*
X117588118Y-112986666D02*
X117645260Y-112986666D01*
X117645260Y-112986666D02*
X117683356Y-113005714D01*
X117683356Y-113005714D02*
X117702403Y-113024761D01*
X117702403Y-113024761D02*
X117721451Y-113062856D01*
X117721451Y-113062856D02*
X117721451Y-113215237D01*
X117645260Y-112643809D02*
X117911927Y-112643809D01*
X117492880Y-112739047D02*
X117778594Y-112834285D01*
X117778594Y-112834285D02*
X117778594Y-112586666D01*
D11*
X152077142Y-114974819D02*
X151743809Y-114498628D01*
X151505714Y-114974819D02*
X151505714Y-113974819D01*
X151505714Y-113974819D02*
X151886666Y-113974819D01*
X151886666Y-113974819D02*
X151981904Y-114022438D01*
X151981904Y-114022438D02*
X152029523Y-114070057D01*
X152029523Y-114070057D02*
X152077142Y-114165295D01*
X152077142Y-114165295D02*
X152077142Y-114308152D01*
X152077142Y-114308152D02*
X152029523Y-114403390D01*
X152029523Y-114403390D02*
X151981904Y-114451009D01*
X151981904Y-114451009D02*
X151886666Y-114498628D01*
X151886666Y-114498628D02*
X151505714Y-114498628D01*
X153029523Y-114974819D02*
X152458095Y-114974819D01*
X152743809Y-114974819D02*
X152743809Y-113974819D01*
X152743809Y-113974819D02*
X152648571Y-114117676D01*
X152648571Y-114117676D02*
X152553333Y-114212914D01*
X152553333Y-114212914D02*
X152458095Y-114260533D01*
X153648571Y-113974819D02*
X153743809Y-113974819D01*
X153743809Y-113974819D02*
X153839047Y-114022438D01*
X153839047Y-114022438D02*
X153886666Y-114070057D01*
X153886666Y-114070057D02*
X153934285Y-114165295D01*
X153934285Y-114165295D02*
X153981904Y-114355771D01*
X153981904Y-114355771D02*
X153981904Y-114593866D01*
X153981904Y-114593866D02*
X153934285Y-114784342D01*
X153934285Y-114784342D02*
X153886666Y-114879580D01*
X153886666Y-114879580D02*
X153839047Y-114927200D01*
X153839047Y-114927200D02*
X153743809Y-114974819D01*
X153743809Y-114974819D02*
X153648571Y-114974819D01*
X153648571Y-114974819D02*
X153553333Y-114927200D01*
X153553333Y-114927200D02*
X153505714Y-114879580D01*
X153505714Y-114879580D02*
X153458095Y-114784342D01*
X153458095Y-114784342D02*
X153410476Y-114593866D01*
X153410476Y-114593866D02*
X153410476Y-114355771D01*
X153410476Y-114355771D02*
X153458095Y-114165295D01*
X153458095Y-114165295D02*
X153505714Y-114070057D01*
X153505714Y-114070057D02*
X153553333Y-114022438D01*
X153553333Y-114022438D02*
X153648571Y-113974819D01*
D10*
X121251927Y-114166666D02*
X121061451Y-114299999D01*
X121251927Y-114395237D02*
X120851927Y-114395237D01*
X120851927Y-114395237D02*
X120851927Y-114242856D01*
X120851927Y-114242856D02*
X120870975Y-114204761D01*
X120870975Y-114204761D02*
X120890022Y-114185714D01*
X120890022Y-114185714D02*
X120928118Y-114166666D01*
X120928118Y-114166666D02*
X120985260Y-114166666D01*
X120985260Y-114166666D02*
X121023356Y-114185714D01*
X121023356Y-114185714D02*
X121042403Y-114204761D01*
X121042403Y-114204761D02*
X121061451Y-114242856D01*
X121061451Y-114242856D02*
X121061451Y-114395237D01*
X120851927Y-113823809D02*
X120851927Y-113899999D01*
X120851927Y-113899999D02*
X120870975Y-113938095D01*
X120870975Y-113938095D02*
X120890022Y-113957142D01*
X120890022Y-113957142D02*
X120947165Y-113995237D01*
X120947165Y-113995237D02*
X121023356Y-114014285D01*
X121023356Y-114014285D02*
X121175737Y-114014285D01*
X121175737Y-114014285D02*
X121213832Y-113995237D01*
X121213832Y-113995237D02*
X121232880Y-113976190D01*
X121232880Y-113976190D02*
X121251927Y-113938095D01*
X121251927Y-113938095D02*
X121251927Y-113861904D01*
X121251927Y-113861904D02*
X121232880Y-113823809D01*
X121232880Y-113823809D02*
X121213832Y-113804761D01*
X121213832Y-113804761D02*
X121175737Y-113785714D01*
X121175737Y-113785714D02*
X121080499Y-113785714D01*
X121080499Y-113785714D02*
X121042403Y-113804761D01*
X121042403Y-113804761D02*
X121023356Y-113823809D01*
X121023356Y-113823809D02*
X121004308Y-113861904D01*
X121004308Y-113861904D02*
X121004308Y-113938095D01*
X121004308Y-113938095D02*
X121023356Y-113976190D01*
X121023356Y-113976190D02*
X121042403Y-113995237D01*
X121042403Y-113995237D02*
X121080499Y-114014285D01*
D11*
X164534819Y-112733333D02*
X165249104Y-112733333D01*
X165249104Y-112733333D02*
X165391961Y-112780952D01*
X165391961Y-112780952D02*
X165487200Y-112876190D01*
X165487200Y-112876190D02*
X165534819Y-113019047D01*
X165534819Y-113019047D02*
X165534819Y-113114285D01*
X164630057Y-112304761D02*
X164582438Y-112257142D01*
X164582438Y-112257142D02*
X164534819Y-112161904D01*
X164534819Y-112161904D02*
X164534819Y-111923809D01*
X164534819Y-111923809D02*
X164582438Y-111828571D01*
X164582438Y-111828571D02*
X164630057Y-111780952D01*
X164630057Y-111780952D02*
X164725295Y-111733333D01*
X164725295Y-111733333D02*
X164820533Y-111733333D01*
X164820533Y-111733333D02*
X164963390Y-111780952D01*
X164963390Y-111780952D02*
X165534819Y-112352380D01*
X165534819Y-112352380D02*
X165534819Y-111733333D01*
D10*
X144753333Y-108131927D02*
X144620000Y-107941451D01*
X144524762Y-108131927D02*
X144524762Y-107731927D01*
X144524762Y-107731927D02*
X144677143Y-107731927D01*
X144677143Y-107731927D02*
X144715238Y-107750975D01*
X144715238Y-107750975D02*
X144734285Y-107770022D01*
X144734285Y-107770022D02*
X144753333Y-107808118D01*
X144753333Y-107808118D02*
X144753333Y-107865260D01*
X144753333Y-107865260D02*
X144734285Y-107903356D01*
X144734285Y-107903356D02*
X144715238Y-107922403D01*
X144715238Y-107922403D02*
X144677143Y-107941451D01*
X144677143Y-107941451D02*
X144524762Y-107941451D01*
X145134285Y-108131927D02*
X144905714Y-108131927D01*
X145020000Y-108131927D02*
X145020000Y-107731927D01*
X145020000Y-107731927D02*
X144981904Y-107789070D01*
X144981904Y-107789070D02*
X144943809Y-107827165D01*
X144943809Y-107827165D02*
X144905714Y-107846213D01*
X151121927Y-106256666D02*
X150931451Y-106389999D01*
X151121927Y-106485237D02*
X150721927Y-106485237D01*
X150721927Y-106485237D02*
X150721927Y-106332856D01*
X150721927Y-106332856D02*
X150740975Y-106294761D01*
X150740975Y-106294761D02*
X150760022Y-106275714D01*
X150760022Y-106275714D02*
X150798118Y-106256666D01*
X150798118Y-106256666D02*
X150855260Y-106256666D01*
X150855260Y-106256666D02*
X150893356Y-106275714D01*
X150893356Y-106275714D02*
X150912403Y-106294761D01*
X150912403Y-106294761D02*
X150931451Y-106332856D01*
X150931451Y-106332856D02*
X150931451Y-106485237D01*
X150721927Y-106123333D02*
X150721927Y-105875714D01*
X150721927Y-105875714D02*
X150874308Y-106009047D01*
X150874308Y-106009047D02*
X150874308Y-105951904D01*
X150874308Y-105951904D02*
X150893356Y-105913809D01*
X150893356Y-105913809D02*
X150912403Y-105894761D01*
X150912403Y-105894761D02*
X150950499Y-105875714D01*
X150950499Y-105875714D02*
X151045737Y-105875714D01*
X151045737Y-105875714D02*
X151083832Y-105894761D01*
X151083832Y-105894761D02*
X151102880Y-105913809D01*
X151102880Y-105913809D02*
X151121927Y-105951904D01*
X151121927Y-105951904D02*
X151121927Y-106066190D01*
X151121927Y-106066190D02*
X151102880Y-106104285D01*
X151102880Y-106104285D02*
X151083832Y-106123333D01*
D13*
X154659530Y-105643333D02*
X154683340Y-105667142D01*
X154683340Y-105667142D02*
X154707149Y-105738571D01*
X154707149Y-105738571D02*
X154707149Y-105786190D01*
X154707149Y-105786190D02*
X154683340Y-105857618D01*
X154683340Y-105857618D02*
X154635720Y-105905237D01*
X154635720Y-105905237D02*
X154588101Y-105929047D01*
X154588101Y-105929047D02*
X154492863Y-105952856D01*
X154492863Y-105952856D02*
X154421435Y-105952856D01*
X154421435Y-105952856D02*
X154326197Y-105929047D01*
X154326197Y-105929047D02*
X154278578Y-105905237D01*
X154278578Y-105905237D02*
X154230959Y-105857618D01*
X154230959Y-105857618D02*
X154207149Y-105786190D01*
X154207149Y-105786190D02*
X154207149Y-105738571D01*
X154207149Y-105738571D02*
X154230959Y-105667142D01*
X154230959Y-105667142D02*
X154254768Y-105643333D01*
X154207149Y-105190952D02*
X154207149Y-105429047D01*
X154207149Y-105429047D02*
X154445244Y-105452856D01*
X154445244Y-105452856D02*
X154421435Y-105429047D01*
X154421435Y-105429047D02*
X154397625Y-105381428D01*
X154397625Y-105381428D02*
X154397625Y-105262380D01*
X154397625Y-105262380D02*
X154421435Y-105214761D01*
X154421435Y-105214761D02*
X154445244Y-105190952D01*
X154445244Y-105190952D02*
X154492863Y-105167142D01*
X154492863Y-105167142D02*
X154611911Y-105167142D01*
X154611911Y-105167142D02*
X154659530Y-105190952D01*
X154659530Y-105190952D02*
X154683340Y-105214761D01*
X154683340Y-105214761D02*
X154707149Y-105262380D01*
X154707149Y-105262380D02*
X154707149Y-105381428D01*
X154707149Y-105381428D02*
X154683340Y-105429047D01*
X154683340Y-105429047D02*
X154659530Y-105452856D01*
D10*
X140001927Y-104616666D02*
X139811451Y-104749999D01*
X140001927Y-104845237D02*
X139601927Y-104845237D01*
X139601927Y-104845237D02*
X139601927Y-104692856D01*
X139601927Y-104692856D02*
X139620975Y-104654761D01*
X139620975Y-104654761D02*
X139640022Y-104635714D01*
X139640022Y-104635714D02*
X139678118Y-104616666D01*
X139678118Y-104616666D02*
X139735260Y-104616666D01*
X139735260Y-104616666D02*
X139773356Y-104635714D01*
X139773356Y-104635714D02*
X139792403Y-104654761D01*
X139792403Y-104654761D02*
X139811451Y-104692856D01*
X139811451Y-104692856D02*
X139811451Y-104845237D01*
X139640022Y-104464285D02*
X139620975Y-104445237D01*
X139620975Y-104445237D02*
X139601927Y-104407142D01*
X139601927Y-104407142D02*
X139601927Y-104311904D01*
X139601927Y-104311904D02*
X139620975Y-104273809D01*
X139620975Y-104273809D02*
X139640022Y-104254761D01*
X139640022Y-104254761D02*
X139678118Y-104235714D01*
X139678118Y-104235714D02*
X139716213Y-104235714D01*
X139716213Y-104235714D02*
X139773356Y-104254761D01*
X139773356Y-104254761D02*
X140001927Y-104483333D01*
X140001927Y-104483333D02*
X140001927Y-104235714D01*
G04 #@! TO.C,D8*
D14*
X122840000Y-83942500D02*
X122840000Y-86742500D01*
X121040000Y-83942500D02*
X122840000Y-83942500D01*
X121940000Y-84592500D02*
X121940000Y-84992500D01*
X121940000Y-84992500D02*
X122490000Y-84992500D01*
X121940000Y-84992500D02*
X121390000Y-84992500D01*
X121940000Y-84992500D02*
X122340000Y-85592500D01*
X122340000Y-85592500D02*
X121540000Y-85592500D01*
X121940000Y-85592500D02*
X121940000Y-86092500D01*
X121540000Y-85592500D02*
X121940000Y-84992500D01*
X122840000Y-86742500D02*
X121040000Y-86742500D01*
X121040000Y-86742500D02*
X121040000Y-83942500D01*
G04 #@! TO.C,C_BYP1*
X141850000Y-101360000D02*
X143450000Y-101360000D01*
X143450000Y-102160000D01*
X141850000Y-102160000D01*
X141850000Y-101360000D01*
G04 #@! TO.C,R9*
X138380000Y-117217500D02*
X139980000Y-117217500D01*
X139980000Y-118042500D01*
X138380000Y-118042500D01*
X138380000Y-117217500D01*
G04 #@! TO.C,D1*
X126487500Y-83050000D02*
X127087500Y-83050000D01*
X126487500Y-83850000D02*
X126487500Y-83050000D01*
X126587500Y-83300000D02*
X126987500Y-83300000D01*
X126587500Y-83600000D02*
X126987500Y-83600000D01*
X126787500Y-83300000D02*
X126587500Y-83600000D01*
X126787500Y-83300000D02*
X126787500Y-83200000D01*
X126787500Y-83600000D02*
X126787500Y-83700000D01*
X126987500Y-83600000D02*
X126787500Y-83300000D01*
X127087500Y-83050000D02*
X127087500Y-83850000D01*
X127087500Y-83850000D02*
X126487500Y-83850000D01*
G04 #@! TO.C,C_BYP2*
X150925000Y-101270000D02*
X152525000Y-101270000D01*
X152525000Y-102070000D01*
X150925000Y-102070000D01*
X150925000Y-101270000D01*
G04 #@! TO.C,IC1*
X142830000Y-103460000D02*
X147230000Y-103460000D01*
X142830000Y-104110000D02*
X143480000Y-103460000D01*
X142830000Y-106460000D02*
X142830000Y-103460000D01*
X147230000Y-103460000D02*
X147230000Y-106460000D01*
X147230000Y-106460000D02*
X142830000Y-106460000D01*
G04 #@! TO.C,D7*
X147740000Y-109297500D02*
X149140000Y-109297500D01*
X147740000Y-111097500D02*
X147740000Y-109297500D01*
X148090000Y-109997500D02*
X148790000Y-109997500D01*
X148090000Y-110497500D02*
X148790000Y-110497500D01*
X148440000Y-109997500D02*
X148440000Y-109747500D01*
X148440000Y-110497500D02*
X148090000Y-109997500D01*
X148440000Y-110497500D02*
X148440000Y-110697500D01*
X148790000Y-109997500D02*
X148440000Y-110497500D01*
X149140000Y-109297500D02*
X149140000Y-111097500D01*
X149140000Y-111097500D02*
X147740000Y-111097500D01*
G04 #@! TO.C,R8*
X133900000Y-117247500D02*
X135500000Y-117247500D01*
X135500000Y-118072500D01*
X133900000Y-118072500D01*
X133900000Y-117247500D01*
G04 #@! TO.C,TP2*
D12*
X137420000Y-77550000D02*
X137420000Y-77950000D01*
X137420000Y-77950000D02*
X140020000Y-77950000D01*
X140020000Y-77550000D02*
X137420000Y-77550000D01*
X140020000Y-77950000D02*
X140020000Y-77550000D01*
G04 #@! TO.C,U3*
D15*
X126179000Y-104686000D02*
X126179000Y-105194000D01*
X126179000Y-105194000D02*
X127283900Y-105194000D01*
X126179000Y-105956000D02*
X126179000Y-106464000D01*
X126179000Y-106464000D02*
X127283900Y-106464000D01*
X126179000Y-107226000D02*
X126179000Y-107734000D01*
X126179000Y-107734000D02*
X127283900Y-107734000D01*
X126179000Y-108496000D02*
X126179000Y-109004000D01*
X126179000Y-109004000D02*
X127283900Y-109004000D01*
X126179000Y-109766000D02*
X126179000Y-110274000D01*
X126179000Y-110274000D02*
X127283900Y-110274000D01*
X126179000Y-111036000D02*
X126179000Y-111544000D01*
X126179000Y-111544000D02*
X127283900Y-111544000D01*
X126179000Y-112306000D02*
X126179000Y-112814000D01*
X126179000Y-112814000D02*
X127283900Y-112814000D01*
X126179000Y-113576000D02*
X126179000Y-114084000D01*
X126179000Y-114084000D02*
X127283900Y-114084000D01*
X127283900Y-104381200D02*
X127283900Y-114388800D01*
X127283900Y-104686000D02*
X126179000Y-104686000D01*
X127283900Y-105194000D02*
X127283900Y-104686000D01*
X127283900Y-105956000D02*
X126179000Y-105956000D01*
X127283900Y-106464000D02*
X127283900Y-105956000D01*
X127283900Y-107226000D02*
X126179000Y-107226000D01*
X127283900Y-107734000D02*
X127283900Y-107226000D01*
X127283900Y-108496000D02*
X126179000Y-108496000D01*
X127283900Y-109004000D02*
X127283900Y-108496000D01*
X127283900Y-109766000D02*
X126179000Y-109766000D01*
X127283900Y-110274000D02*
X127283900Y-109766000D01*
X127283900Y-111036000D02*
X126179000Y-111036000D01*
X127283900Y-111544000D02*
X127283900Y-111036000D01*
X127283900Y-112306000D02*
X126179000Y-112306000D01*
X127283900Y-112814000D02*
X127283900Y-112306000D01*
X127283900Y-113576000D02*
X126179000Y-113576000D01*
X127283900Y-114084000D02*
X127283900Y-113576000D01*
X127283900Y-114388800D02*
X131271700Y-114388800D01*
X131271700Y-104381200D02*
X127283900Y-104381200D01*
X131271700Y-104686000D02*
X131271700Y-105194000D01*
X131271700Y-105194000D02*
X132376600Y-105194000D01*
X131271700Y-105956000D02*
X131271700Y-106464000D01*
X131271700Y-106464000D02*
X132376600Y-106464000D01*
X131271700Y-107226000D02*
X131271700Y-107734000D01*
X131271700Y-107734000D02*
X132376600Y-107734000D01*
X131271700Y-108496000D02*
X131271700Y-109004000D01*
X131271700Y-109004000D02*
X132376600Y-109004000D01*
X131271700Y-109766000D02*
X131271700Y-110274000D01*
X131271700Y-110274000D02*
X132376600Y-110274000D01*
X131271700Y-111036000D02*
X131271700Y-111544000D01*
X131271700Y-111544000D02*
X132376600Y-111544000D01*
X131271700Y-112306000D02*
X131271700Y-112814000D01*
X131271700Y-112814000D02*
X132376600Y-112814000D01*
X131271700Y-113576000D02*
X131271700Y-114084000D01*
X131271700Y-114084000D02*
X132376600Y-114084000D01*
X131271700Y-114388800D02*
X131271700Y-104381200D01*
X132376600Y-104686000D02*
X131271700Y-104686000D01*
X132376600Y-105194000D02*
X132376600Y-104686000D01*
X132376600Y-105956000D02*
X131271700Y-105956000D01*
X132376600Y-106464000D02*
X132376600Y-105956000D01*
X132376600Y-107226000D02*
X131271700Y-107226000D01*
X132376600Y-107734000D02*
X132376600Y-107226000D01*
X132376600Y-108496000D02*
X131271700Y-108496000D01*
X132376600Y-109004000D02*
X132376600Y-108496000D01*
X132376600Y-109766000D02*
X131271700Y-109766000D01*
X132376600Y-110274000D02*
X132376600Y-109766000D01*
X132376600Y-111036000D02*
X131271700Y-111036000D01*
X132376600Y-111544000D02*
X132376600Y-111036000D01*
X132376600Y-112306000D02*
X131271700Y-112306000D01*
X132376600Y-112814000D02*
X132376600Y-112306000D01*
X132376600Y-113576000D02*
X131271700Y-113576000D01*
X132376600Y-114084000D02*
X132376600Y-113576000D01*
X129582600Y-104381200D02*
G75*
G02*
X128973000Y-104381200I-304800J0D01*
G01*
G04 #@! TO.C,R7*
D14*
X126880000Y-117177500D02*
X128480000Y-117177500D01*
X128480000Y-118002500D01*
X126880000Y-118002500D01*
X126880000Y-117177500D01*
G04 #@! TO.C,TP4*
D12*
X147870000Y-92810000D02*
X147870000Y-93210000D01*
X147870000Y-93210000D02*
X150470000Y-93210000D01*
X150470000Y-92810000D02*
X147870000Y-92810000D01*
X150470000Y-93210000D02*
X150470000Y-92810000D01*
G04 #@! TO.C,U2*
D15*
X145235350Y-84226000D02*
X145235350Y-84734000D01*
X145235350Y-84734000D02*
X146340250Y-84734000D01*
X145235350Y-85496000D02*
X145235350Y-86004000D01*
X145235350Y-86004000D02*
X146340250Y-86004000D01*
X145235350Y-86766000D02*
X145235350Y-87274000D01*
X145235350Y-87274000D02*
X146340250Y-87274000D01*
X145235350Y-88036000D02*
X145235350Y-88544000D01*
X145235350Y-88544000D02*
X146340250Y-88544000D01*
X146340250Y-83883100D02*
X146340250Y-88886900D01*
X146340250Y-84226000D02*
X145235350Y-84226000D01*
X146340250Y-84734000D02*
X146340250Y-84226000D01*
X146340250Y-85496000D02*
X145235350Y-85496000D01*
X146340250Y-86004000D02*
X146340250Y-85496000D01*
X146340250Y-86766000D02*
X145235350Y-86766000D01*
X146340250Y-87274000D02*
X146340250Y-86766000D01*
X146340250Y-88036000D02*
X145235350Y-88036000D01*
X146340250Y-88544000D02*
X146340250Y-88036000D01*
X146340250Y-88886900D02*
X150328050Y-88886900D01*
X150328050Y-83883100D02*
X146340250Y-83883100D01*
X150328050Y-84226000D02*
X150328050Y-84734000D01*
X150328050Y-84734000D02*
X151432950Y-84734000D01*
X150328050Y-85496000D02*
X150328050Y-86004000D01*
X150328050Y-86004000D02*
X151432950Y-86004000D01*
X150328050Y-86766000D02*
X150328050Y-87274000D01*
X150328050Y-87274000D02*
X151432950Y-87274000D01*
X150328050Y-88036000D02*
X150328050Y-88544000D01*
X150328050Y-88544000D02*
X151432950Y-88544000D01*
X150328050Y-88886900D02*
X150328050Y-83883100D01*
X151432950Y-84226000D02*
X150328050Y-84226000D01*
X151432950Y-84734000D02*
X151432950Y-84226000D01*
X151432950Y-85496000D02*
X150328050Y-85496000D01*
X151432950Y-86004000D02*
X151432950Y-85496000D01*
X151432950Y-86766000D02*
X150328050Y-86766000D01*
X151432950Y-87274000D02*
X151432950Y-86766000D01*
X151432950Y-88036000D02*
X150328050Y-88036000D01*
X151432950Y-88544000D02*
X151432950Y-88036000D01*
X148638950Y-83883100D02*
G75*
G02*
X148029350Y-83883100I-304800J0D01*
G01*
G04 #@! TO.C,D2*
D14*
X117010000Y-107637500D02*
X118410000Y-107637500D01*
X117010000Y-109437500D02*
X117010000Y-107637500D01*
X117360000Y-108337500D02*
X118060000Y-108337500D01*
X117360000Y-108837500D02*
X118060000Y-108837500D01*
X117710000Y-108337500D02*
X117710000Y-108087500D01*
X117710000Y-108837500D02*
X117360000Y-108337500D01*
X117710000Y-108837500D02*
X117710000Y-109037500D01*
X118060000Y-108337500D02*
X117710000Y-108837500D01*
X118410000Y-107637500D02*
X118410000Y-109437500D01*
X118410000Y-109437500D02*
X117010000Y-109437500D01*
G04 #@! TO.C,D5*
X123520000Y-115507500D02*
X124920000Y-115507500D01*
X123520000Y-117307500D02*
X123520000Y-115507500D01*
X123870000Y-116207500D02*
X124570000Y-116207500D01*
X123870000Y-116707500D02*
X124570000Y-116707500D01*
X124220000Y-116207500D02*
X124220000Y-115957500D01*
X124220000Y-116707500D02*
X123870000Y-116207500D01*
X124220000Y-116707500D02*
X124220000Y-116907500D01*
X124570000Y-116207500D02*
X124220000Y-116707500D01*
X124920000Y-115507500D02*
X124920000Y-117307500D01*
X124920000Y-117307500D02*
X123520000Y-117307500D01*
G04 #@! TO.C,TP6*
D12*
X158210000Y-104760000D02*
X158210000Y-105160000D01*
X158210000Y-105160000D02*
X160810000Y-105160000D01*
X160810000Y-104760000D02*
X158210000Y-104760000D01*
X160810000Y-105160000D02*
X160810000Y-104760000D01*
G04 #@! TO.C,TP5*
X158210000Y-109210000D02*
X158210000Y-109610000D01*
X158210000Y-109610000D02*
X160810000Y-109610000D01*
X160810000Y-109210000D02*
X158210000Y-109210000D01*
X160810000Y-109610000D02*
X160810000Y-109210000D01*
G04 #@! TO.C,C_BYP4*
D14*
X140810000Y-80785000D02*
X141610000Y-80785000D01*
X141610000Y-82385000D01*
X140810000Y-82385000D01*
X140810000Y-80785000D01*
G04 #@! TO.C,R5*
X113717500Y-110045000D02*
X114542500Y-110045000D01*
X114542500Y-111645000D01*
X113717500Y-111645000D01*
X113717500Y-110045000D01*
G04 #@! TO.C,C1*
X138490000Y-88430000D02*
X138490000Y-91730000D01*
X139490000Y-87430000D02*
X138490000Y-88430000D01*
X141640000Y-88005227D02*
X141640000Y-88405227D01*
X141790000Y-87430000D02*
X139490000Y-87430000D01*
X141790000Y-87430000D02*
X142790000Y-88430000D01*
X141840000Y-88205227D02*
X141440000Y-88205227D01*
X142790000Y-88430000D02*
X142790000Y-91730000D01*
X142790000Y-91730000D02*
X138490000Y-91730000D01*
X142640000Y-89580000D02*
G75*
G02*
X138640000Y-89580000I-2000000J0D01*
G01*
X138640000Y-89580000D02*
G75*
G02*
X142640000Y-89580000I2000000J0D01*
G01*
G04 #@! TO.C,C_BYP3*
X129360000Y-84800000D02*
X130160000Y-84800000D01*
X130160000Y-86400000D01*
X129360000Y-86400000D01*
X129360000Y-84800000D01*
G04 #@! TO.C,TP3*
D12*
X154520000Y-80360000D02*
X154520000Y-80760000D01*
X154520000Y-80760000D02*
X157120000Y-80760000D01*
X157120000Y-80360000D02*
X154520000Y-80360000D01*
X157120000Y-80760000D02*
X157120000Y-80360000D01*
G04 #@! TO.C,C2*
D14*
X146890000Y-77640000D02*
X146890000Y-79940000D01*
X146890000Y-77640000D02*
X147890000Y-76640000D01*
X146890000Y-79940000D02*
X147890000Y-80940000D01*
X147465227Y-77790000D02*
X147865227Y-77790000D01*
X147665227Y-77590000D02*
X147665227Y-77990000D01*
X147890000Y-76640000D02*
X151190000Y-76640000D01*
X147890000Y-80940000D02*
X151190000Y-80940000D01*
X151190000Y-76640000D02*
X151190000Y-80940000D01*
X151040000Y-78790000D02*
G75*
G02*
X147040000Y-78790000I-2000000J0D01*
G01*
X147040000Y-78790000D02*
G75*
G02*
X151040000Y-78790000I2000000J0D01*
G01*
G04 #@! TO.C,R4*
X117317500Y-112120000D02*
X118142500Y-112120000D01*
X118142500Y-113720000D01*
X117317500Y-113720000D01*
X117317500Y-112120000D01*
G04 #@! TO.C,R10*
X148910000Y-114520000D02*
X149570000Y-114520000D01*
X156530000Y-114520000D02*
X155870000Y-114520000D01*
X149570000Y-113270000D02*
X155870000Y-113270000D01*
X155870000Y-115770000D01*
X149570000Y-115770000D01*
X149570000Y-113270000D01*
G04 #@! TO.C,TP8*
D12*
X131490000Y-73640000D02*
X131490000Y-74040000D01*
X131490000Y-74040000D02*
X134090000Y-74040000D01*
X134090000Y-73640000D02*
X131490000Y-73640000D01*
X134090000Y-74040000D02*
X134090000Y-73640000D01*
G04 #@! TO.C,TP9*
X163690000Y-105570000D02*
X163690000Y-105970000D01*
X163690000Y-105970000D02*
X166290000Y-105970000D01*
X166290000Y-105570000D02*
X163690000Y-105570000D01*
X166290000Y-105970000D02*
X166290000Y-105570000D01*
G04 #@! TO.C,R6*
D14*
X120657500Y-113300000D02*
X121482500Y-113300000D01*
X121482500Y-114900000D01*
X120657500Y-114900000D01*
X120657500Y-113300000D01*
G04 #@! TO.C,J2*
X163810000Y-108590000D02*
X166350000Y-108590000D01*
X163810000Y-115575000D02*
X163810000Y-108590000D01*
X164445000Y-116210000D02*
X163810000Y-115575000D01*
X166350000Y-108590000D02*
X166350000Y-116210000D01*
X166350000Y-116210000D02*
X164445000Y-116210000D01*
G04 #@! TO.C,R1*
X144020000Y-107537500D02*
X145620000Y-107537500D01*
X145620000Y-108362500D01*
X144020000Y-108362500D01*
X144020000Y-107537500D01*
G04 #@! TO.C,R3*
X150527500Y-105390000D02*
X151352500Y-105390000D01*
X151352500Y-106990000D01*
X150527500Y-106990000D01*
X150527500Y-105390000D01*
G04 #@! TO.C,TP1*
D12*
X125510000Y-79470000D02*
X125510000Y-79870000D01*
X125510000Y-79870000D02*
X128110000Y-79870000D01*
X128110000Y-79470000D02*
X125510000Y-79470000D01*
X128110000Y-79870000D02*
X128110000Y-79470000D01*
G04 #@! TO.C,D6*
D14*
X135780000Y-112897500D02*
X137180000Y-112897500D01*
X135780000Y-114697500D02*
X135780000Y-112897500D01*
X136130000Y-113597500D02*
X136830000Y-113597500D01*
X136130000Y-114097500D02*
X136830000Y-114097500D01*
X136480000Y-113597500D02*
X136480000Y-113347500D01*
X136480000Y-114097500D02*
X136130000Y-113597500D01*
X136480000Y-114097500D02*
X136480000Y-114297500D01*
X136830000Y-113597500D02*
X136480000Y-114097500D01*
X137180000Y-112897500D02*
X137180000Y-114697500D01*
X137180000Y-114697500D02*
X135780000Y-114697500D01*
G04 #@! TO.C,U1*
D16*
X132587500Y-85945000D02*
X132587500Y-81395000D01*
X135082500Y-81395000D02*
X132587500Y-81395000D01*
X135082500Y-85945000D02*
X132587500Y-85945000D01*
X135082500Y-85945000D02*
X135082500Y-81395000D01*
D17*
X137647500Y-85170000D02*
G75*
G02*
X137447500Y-85170000I-100000J0D01*
G01*
X137447500Y-85170000D02*
G75*
G02*
X137647500Y-85170000I100000J0D01*
G01*
G04 #@! TO.C,D3*
D14*
X113442500Y-105997500D02*
X114842500Y-105997500D01*
X113442500Y-107797500D02*
X113442500Y-105997500D01*
X113792500Y-106697500D02*
X114492500Y-106697500D01*
X113792500Y-107197500D02*
X114492500Y-107197500D01*
X114142500Y-106697500D02*
X114142500Y-106447500D01*
X114142500Y-107197500D02*
X113792500Y-106697500D01*
X114142500Y-107197500D02*
X114142500Y-107397500D01*
X114492500Y-106697500D02*
X114142500Y-107197500D01*
X114842500Y-105997500D02*
X114842500Y-107797500D01*
X114842500Y-107797500D02*
X113442500Y-107797500D01*
G04 #@! TO.C,TP7*
D12*
X112800000Y-115190000D02*
X112800000Y-115590000D01*
X112800000Y-115590000D02*
X115400000Y-115590000D01*
X115400000Y-115190000D02*
X112800000Y-115190000D01*
X115400000Y-115590000D02*
X115400000Y-115190000D01*
G04 #@! TO.C,C5*
D14*
X153855000Y-104560000D02*
X155105000Y-104560000D01*
X155105000Y-106560000D01*
X153855000Y-106560000D01*
X153855000Y-104560000D01*
G04 #@! TO.C,R2*
X139407500Y-103750000D02*
X140232500Y-103750000D01*
X140232500Y-105350000D01*
X139407500Y-105350000D01*
X139407500Y-103750000D01*
G04 #@! TO.C,D4*
X120440000Y-109030000D02*
X121840000Y-109030000D01*
X120440000Y-110830000D02*
X120440000Y-109030000D01*
X120790000Y-109730000D02*
X121490000Y-109730000D01*
X120790000Y-110230000D02*
X121490000Y-110230000D01*
X121140000Y-109730000D02*
X121140000Y-109480000D01*
X121140000Y-110230000D02*
X120790000Y-109730000D01*
X121140000Y-110230000D02*
X121140000Y-110430000D01*
X121490000Y-109730000D02*
X121140000Y-110230000D01*
X121840000Y-109030000D02*
X121840000Y-110830000D01*
X121840000Y-110830000D02*
X120440000Y-110830000D01*
G04 #@! TD*
D18*
X109911182Y-120525892D02*
X109959924Y-69308178D01*
X109959924Y-69308178D02*
G75*
G02*
X112404111Y-66511153I2191976J550978D01*
G01*
X112404108Y-66511182D02*
X165849049Y-66908020D01*
X112630000Y-122980000D02*
G75*
G02*
X109919177Y-120526790I-472800J2201900D01*
G01*
X112630000Y-122980000D02*
X112720000Y-122976045D01*
X165849049Y-66908020D02*
G75*
G02*
X168646045Y-69352204I550951J-2191980D01*
G01*
X166517796Y-122976045D02*
X112720000Y-122976045D01*
X168646045Y-69352204D02*
X168961980Y-120179049D01*
X168961980Y-120179049D02*
G75*
G02*
X166517796Y-122976045I-2191980J-550951D01*
G01*
M02*
