G04 #@! TF.GenerationSoftware,KiCad,Pcbnew,10.0.1*
G04 #@! TF.CreationDate,2026-04-28T14:02:31+01:00*
G04 #@! TF.ProjectId,curve_tracer,63757276-655f-4747-9261-6365722e6b69,rev?*
G04 #@! TF.SameCoordinates,Original*
G04 #@! TF.FileFunction,Soldermask,Top*
G04 #@! TF.FilePolarity,Negative*
%FSLAX46Y46*%
G04 Gerber Fmt 4.6, Leading zero omitted, Abs format (unit mm)*
G04 Created by KiCad (PCBNEW 10.0.1) date 2026-04-28 14:02:31*
%MOMM*%
%LPD*%
G01*
G04 APERTURE LIST*
G04 Aperture macros list*
%AMRoundRect*
0 Rectangle with rounded corners*
0 $1 Rounding radius*
0 $2 $3 $4 $5 $6 $7 $8 $9 X,Y pos of 4 corners*
0 Add a 4 corners polygon primitive as box body*
4,1,4,$2,$3,$4,$5,$6,$7,$8,$9,$2,$3,0*
0 Add four circle primitives for the rounded corners*
1,1,$1+$1,$2,$3*
1,1,$1+$1,$4,$5*
1,1,$1+$1,$6,$7*
1,1,$1+$1,$8,$9*
0 Add four rect primitives between the rounded corners*
20,1,$1+$1,$2,$3,$4,$5,0*
20,1,$1+$1,$4,$5,$6,$7,0*
20,1,$1+$1,$6,$7,$8,$9,0*
20,1,$1+$1,$8,$9,$2,$3,0*%
G04 Aperture macros list end*
%ADD10C,0.010000*%
%ADD11RoundRect,0.225000X-0.375000X0.225000X-0.375000X-0.225000X0.375000X-0.225000X0.375000X0.225000X0*%
%ADD12RoundRect,0.225000X0.225000X0.250000X-0.225000X0.250000X-0.225000X-0.250000X0.225000X-0.250000X0*%
%ADD13RoundRect,0.200000X0.200000X0.275000X-0.200000X0.275000X-0.200000X-0.275000X0.200000X-0.275000X0*%
%ADD14RoundRect,0.062500X0.062500X-0.117500X0.062500X0.117500X-0.062500X0.117500X-0.062500X-0.117500X0*%
%ADD15RoundRect,0.225000X-0.225000X-0.250000X0.225000X-0.250000X0.225000X0.250000X-0.225000X0.250000X0*%
%ADD16R,1.475000X0.450000*%
%ADD17RoundRect,0.112500X0.112500X-0.187500X0.112500X0.187500X-0.112500X0.187500X-0.112500X-0.187500X0*%
%ADD18RoundRect,0.200000X-0.200000X-0.275000X0.200000X-0.275000X0.200000X0.275000X-0.200000X0.275000X0*%
%ADD19C,2.000000*%
%ADD20R,2.184400X0.558800*%
%ADD21R,1.460500X0.558800*%
%ADD22RoundRect,0.225000X-0.250000X0.225000X-0.250000X-0.225000X0.250000X-0.225000X0.250000X0.225000X0*%
%ADD23RoundRect,0.200000X0.275000X-0.200000X0.275000X0.200000X-0.275000X0.200000X-0.275000X-0.200000X0*%
%ADD24RoundRect,0.250000X-0.550000X1.050000X-0.550000X-1.050000X0.550000X-1.050000X0.550000X1.050000X0*%
%ADD25RoundRect,0.250000X-1.050000X-0.550000X1.050000X-0.550000X1.050000X0.550000X-1.050000X0.550000X0*%
%ADD26C,1.600000*%
%ADD27R,1.700000X1.700000*%
%ADD28C,1.700000*%
%ADD29RoundRect,0.200000X-0.275000X0.200000X-0.275000X-0.200000X0.275000X-0.200000X0.275000X0.200000X0*%
%ADD30RoundRect,0.102000X0.650000X-0.350000X0.650000X0.350000X-0.650000X0.350000X-0.650000X-0.350000X0*%
%ADD31RoundRect,0.250000X-0.475000X0.250000X-0.475000X-0.250000X0.475000X-0.250000X0.475000X0.250000X0*%
%ADD32C,2.300000*%
%ADD33R,2.410000X4.020000*%
%ADD34O,2.410000X4.020000*%
G04 #@! TA.AperFunction,Profile*
%ADD35C,0.050000*%
G04 #@! TD*
G04 APERTURE END LIST*
D10*
G04 #@! TO.C,U1*
X134657500Y-83220000D02*
X136647500Y-83220000D01*
X136647500Y-84120000D01*
X134657500Y-84120000D01*
X134472500Y-84895000D01*
X131347500Y-84895000D01*
X131347500Y-82445000D01*
X134472500Y-82445000D01*
X134657500Y-83220000D01*
G36*
X134657500Y-83220000D02*
G01*
X136647500Y-83220000D01*
X136647500Y-84120000D01*
X134657500Y-84120000D01*
X134472500Y-84895000D01*
X131347500Y-84895000D01*
X131347500Y-82445000D01*
X134472500Y-82445000D01*
X134657500Y-83220000D01*
G37*
G04 #@! TD*
D11*
G04 #@! TO.C,D8*
X121940000Y-83692500D03*
X121940000Y-86992500D03*
G04 #@! TD*
D12*
G04 #@! TO.C,C_BYP1*
X143425000Y-101760000D03*
X141875000Y-101760000D03*
G04 #@! TD*
D13*
G04 #@! TO.C,R9*
X140005000Y-117630000D03*
X138355000Y-117630000D03*
G04 #@! TD*
D14*
G04 #@! TO.C,D1*
X126787500Y-83030000D03*
X126787500Y-83870000D03*
G04 #@! TD*
D15*
G04 #@! TO.C,C_BYP2*
X150950000Y-101670000D03*
X152500000Y-101670000D03*
G04 #@! TD*
D16*
G04 #@! TO.C,IC1*
X142092000Y-103985000D03*
X142092000Y-104635000D03*
X142092000Y-105285000D03*
X142092000Y-105935000D03*
X147968000Y-105935000D03*
X147968000Y-105285000D03*
X147968000Y-104635000D03*
X147968000Y-103985000D03*
G04 #@! TD*
D17*
G04 #@! TO.C,D7*
X148440000Y-111247500D03*
X148440000Y-109147500D03*
G04 #@! TD*
D18*
G04 #@! TO.C,R8*
X133875000Y-117660000D03*
X135525000Y-117660000D03*
G04 #@! TD*
D19*
G04 #@! TO.C,TP2*
X138720000Y-77750000D03*
G04 #@! TD*
D20*
G04 #@! TO.C,U3*
X126915600Y-104940000D03*
X126915600Y-106210000D03*
X126915600Y-107480000D03*
X126915600Y-108750000D03*
X126915600Y-110020000D03*
X126915600Y-111290000D03*
X126915600Y-112560000D03*
X126915600Y-113830000D03*
X131640000Y-113830000D03*
X131640000Y-112560000D03*
X131640000Y-111290000D03*
X131640000Y-110020000D03*
X131640000Y-108750000D03*
X131640000Y-107480000D03*
X131640000Y-106210000D03*
X131640000Y-104940000D03*
G04 #@! TD*
D13*
G04 #@! TO.C,R7*
X128505000Y-117590000D03*
X126855000Y-117590000D03*
G04 #@! TD*
D19*
G04 #@! TO.C,TP4*
X149170000Y-93010000D03*
G04 #@! TD*
D21*
G04 #@! TO.C,U2*
X145610000Y-84480000D03*
X145610000Y-85750000D03*
X145610000Y-87020000D03*
X145610000Y-88290000D03*
X151058300Y-88290000D03*
X151058300Y-87020000D03*
X151058300Y-85750000D03*
X151058300Y-84480000D03*
G04 #@! TD*
D17*
G04 #@! TO.C,D2*
X117710000Y-109587500D03*
X117710000Y-107487500D03*
G04 #@! TD*
G04 #@! TO.C,D5*
X124220000Y-117457500D03*
X124220000Y-115357500D03*
G04 #@! TD*
D19*
G04 #@! TO.C,TP6*
X159510000Y-104960000D03*
G04 #@! TD*
G04 #@! TO.C,TP5*
X159510000Y-109410000D03*
G04 #@! TD*
D22*
G04 #@! TO.C,C_BYP4*
X141210000Y-80810000D03*
X141210000Y-82360000D03*
G04 #@! TD*
D23*
G04 #@! TO.C,R5*
X114130000Y-111670000D03*
X114130000Y-110020000D03*
G04 #@! TD*
D24*
G04 #@! TO.C,C1*
X140640000Y-87780000D03*
X140640000Y-91380000D03*
G04 #@! TD*
D22*
G04 #@! TO.C,C_BYP3*
X129760000Y-84825000D03*
X129760000Y-86375000D03*
G04 #@! TD*
D19*
G04 #@! TO.C,TP3*
X155820000Y-80560000D03*
G04 #@! TD*
D25*
G04 #@! TO.C,C2*
X147240000Y-78790000D03*
X150840000Y-78790000D03*
G04 #@! TD*
D23*
G04 #@! TO.C,R4*
X117730000Y-113745000D03*
X117730000Y-112095000D03*
G04 #@! TD*
D26*
G04 #@! TO.C,R10*
X148910000Y-114520000D03*
X156530000Y-114520000D03*
G04 #@! TD*
D19*
G04 #@! TO.C,TP8*
X132790000Y-73840000D03*
G04 #@! TD*
G04 #@! TO.C,TP9*
X164990000Y-105770000D03*
G04 #@! TD*
D23*
G04 #@! TO.C,R6*
X121070000Y-114925000D03*
X121070000Y-113275000D03*
G04 #@! TD*
D27*
G04 #@! TO.C,J2*
X165080000Y-114940000D03*
D28*
X165080000Y-112400000D03*
X165080000Y-109860000D03*
G04 #@! TD*
D13*
G04 #@! TO.C,R1*
X145645000Y-107950000D03*
X143995000Y-107950000D03*
G04 #@! TD*
D29*
G04 #@! TO.C,R3*
X150940000Y-105365000D03*
X150940000Y-107015000D03*
G04 #@! TD*
D19*
G04 #@! TO.C,TP1*
X126810000Y-79670000D03*
G04 #@! TD*
D17*
G04 #@! TO.C,D6*
X136480000Y-114847500D03*
X136480000Y-112747500D03*
G04 #@! TD*
D30*
G04 #@! TO.C,U1*
X135897500Y-85170000D03*
X135897500Y-82170000D03*
G04 #@! TD*
D17*
G04 #@! TO.C,D3*
X114142500Y-107947500D03*
X114142500Y-105847500D03*
G04 #@! TD*
D19*
G04 #@! TO.C,TP7*
X114100000Y-115390000D03*
G04 #@! TD*
D31*
G04 #@! TO.C,C5*
X154480000Y-104610000D03*
X154480000Y-106510000D03*
G04 #@! TD*
D23*
G04 #@! TO.C,R2*
X139820000Y-105375000D03*
X139820000Y-103725000D03*
G04 #@! TD*
D17*
G04 #@! TO.C,D4*
X121140000Y-110980000D03*
X121140000Y-108880000D03*
G04 #@! TD*
D32*
G04 #@! TO.C,J1*
X126020000Y-73890000D03*
X139510000Y-96240000D03*
X152990000Y-73890000D03*
D33*
X113730000Y-91510000D03*
D34*
X113730000Y-78630000D03*
G04 #@! TD*
D35*
X109911182Y-120525892D02*
X109959924Y-69308178D01*
X109959924Y-69308178D02*
G75*
G02*
X112404111Y-66511153I2191976J550978D01*
G01*
X112404108Y-66511182D02*
X165849049Y-66908020D01*
X112630000Y-122980000D02*
G75*
G02*
X109919177Y-120526790I-472800J2201900D01*
G01*
X112630000Y-122980000D02*
X112720000Y-122976045D01*
X165849049Y-66908020D02*
G75*
G02*
X168646045Y-69352204I550951J-2191980D01*
G01*
X166517796Y-122976045D02*
X112720000Y-122976045D01*
X168646045Y-69352204D02*
X168961980Y-120179049D01*
X168961980Y-120179049D02*
G75*
G02*
X166517796Y-122976045I-2191980J-550951D01*
G01*
M02*
